<svg xmlns="http://www.w3.org/2000/svg" xmlns:xlink="http://www.w3.org/1999/xlink" width="800" zoomAndPan="magnify" viewBox="0 0 600 225" height="300" preserveAspectRatio="xMidYMid meet" version="1.0"><defs><g/><clipPath id="2d13516dfb"><path d="M 111 50 L 304 50 L 304 172 L 111 172 Z M 111 50 " clip-rule="nonzero"/></clipPath><clipPath id="16dbadb174"><path d="M 111.4375 169.1875 L 303.902344 50.046875 L 341.980469 111.558594 L 149.515625 230.699219 Z M 111.4375 169.1875 " clip-rule="nonzero"/></clipPath><clipPath id="823ec64644"><path d="M 245.734375 171.140625 L 303.871094 50.0625 L 111.4375 169.1875 Z M 245.734375 171.140625 " clip-rule="nonzero"/></clipPath><clipPath id="ac46470453"><path d="M 0.359375 0 L 193 0 L 193 121.359375 L 0.359375 121.359375 Z M 0.359375 0 " clip-rule="nonzero"/></clipPath><clipPath id="859934a7b8"><path d="M 0.4375 119.1875 L 192.902344 0.046875 L 230.980469 61.558594 L 38.515625 180.699219 Z M 0.4375 119.1875 " clip-rule="nonzero"/></clipPath><clipPath id="da8e48d4b2"><path d="M 134.734375 121.140625 L 192.871094 0.0625 L 0.4375 119.1875 Z M 134.734375 121.140625 " clip-rule="nonzero"/></clipPath><clipPath id="b47aeba2bc"><rect x="0" width="193" y="0" height="122"/></clipPath><clipPath id="e0b26a18aa"><path d="M 106 42 L 298 42 L 298 163 L 106 163 Z M 106 42 " clip-rule="nonzero"/></clipPath><clipPath id="2e17618ccd"><path d="M 106.046875 160.480469 L 297.394531 42.03125 L 334.972656 102.730469 L 143.621094 221.183594 Z M 106.046875 160.480469 " clip-rule="nonzero"/></clipPath><clipPath id="1ea94cbbce"><path d="M 239.195312 162.019531 L 297.195312 42.15625 L 106.046875 160.480469 Z M 239.195312 162.019531 " clip-rule="nonzero"/></clipPath><clipPath id="f126a1feeb"><path d="M 0 0 L 191.359375 0 L 191.359375 120.238281 L 0 120.238281 Z M 0 0 " clip-rule="nonzero"/></clipPath><clipPath id="dc9c33781c"><path d="M 0.046875 118.480469 L 191.394531 0.03125 L 228.972656 60.730469 L 37.621094 179.183594 Z M 0.046875 118.480469 " clip-rule="nonzero"/></clipPath><clipPath id="ec1f1deb40"><path d="M 133.195312 120.019531 L 191.195312 0.15625 L 0.046875 118.480469 Z M 133.195312 120.019531 " clip-rule="nonzero"/></clipPath><clipPath id="78703b377d"><rect x="0" width="192" y="0" height="121"/></clipPath><clipPath id="03b7683934"><path d="M 135.171875 37.074219 L 250.671875 37.074219 L 250.671875 152.574219 L 135.171875 152.574219 Z M 135.171875 37.074219 " clip-rule="nonzero"/></clipPath><clipPath id="3dcbf0b595"><path d="M 183.0625 144 L 192 144 L 192 152 L 183.0625 152 Z M 183.0625 144 " clip-rule="nonzero"/></clipPath><clipPath id="27229b2723"><path d="M 183.0625 143 L 192 143 L 192 152.125 L 183.0625 152.125 Z M 183.0625 143 " clip-rule="nonzero"/></clipPath><clipPath id="16f851afdd"><path d="M 189 135.625 L 196 135.625 L 196 148 L 189 148 Z M 189 135.625 " clip-rule="nonzero"/></clipPath><clipPath id="47470c1c7b"><path d="M 194 144 L 202.5625 144 L 202.5625 152 L 194 152 Z M 194 144 " clip-rule="nonzero"/></clipPath><clipPath id="3679f5aca8"><path d="M 193 143 L 202.5625 143 L 202.5625 152.125 L 193 152.125 Z M 193 143 " clip-rule="nonzero"/></clipPath><clipPath id="0d131cc316"><rect x="0" width="186" y="0" height="45"/></clipPath><clipPath id="9368c77469"><rect x="0" width="186" y="0" height="46"/></clipPath></defs><g clip-path="url(#2d13516dfb)"><g clip-path="url(#16dbadb174)"><g clip-path="url(#823ec64644)"><g transform="matrix(1, 0, 0, 1, 111, 50)"><g clip-path="url(#b47aeba2bc)"><g clip-path="url(#ac46470453)"><g clip-path="url(#859934a7b8)"><g clip-path="url(#da8e48d4b2)"><path fill="#537653" d="M 0.4375 119.1875 L 192.902344 0.046875 L 230.980469 61.558594 L 38.515625 180.699219 Z M 0.4375 119.1875 " fill-opacity="1" fill-rule="nonzero"/></g></g></g></g></g></g></g></g><g clip-path="url(#e0b26a18aa)"><g clip-path="url(#2e17618ccd)"><g clip-path="url(#1ea94cbbce)"><g transform="matrix(1, 0, 0, 1, 106, 42)"><g clip-path="url(#78703b377d)"><g clip-path="url(#f126a1feeb)"><g clip-path="url(#dc9c33781c)"><g clip-path="url(#ec1f1deb40)"><path fill="#ffffff" d="M 0.046875 118.480469 L 191.160156 0.179688 L 228.734375 60.878906 L 37.621094 179.183594 Z M 0.046875 118.480469 " fill-opacity="1" fill-rule="nonzero"/></g></g></g></g></g></g></g></g><g clip-path="url(#03b7683934)"><path fill="#537653" d="M 248.992188 86.820312 C 231.960938 70.808594 214.949219 54.800781 197.945312 38.796875 C 196.496094 37.707031 194.867188 37.132812 193.054688 37.074219 C 192.660156 37.054688 192.351562 37.074219 192.289062 37.074219 C 190.632812 37.164062 189.160156 37.734375 187.875 38.789062 C 170.863281 54.808594 153.847656 70.820312 136.820312 86.820312 C 135.996094 87.578125 135.511719 88.511719 135.378906 89.625 C 135.398438 90.300781 135.535156 90.953125 135.792969 91.578125 C 136.050781 92.207031 136.410156 92.765625 136.871094 93.261719 C 137.332031 93.757812 137.867188 94.15625 138.472656 94.457031 C 139.078125 94.757812 139.71875 94.945312 140.394531 95.011719 C 141.496094 94.859375 142.398438 94.351562 143.097656 93.484375 C 145.988281 90.285156 164.851562 72.164062 191.519531 46.691406 C 191.757812 46.488281 192.027344 46.339844 192.324219 46.238281 C 192.617188 46.117188 192.921875 46.082031 193.234375 46.136719 C 193.640625 46.210938 193.992188 46.398438 194.285156 46.691406 C 220.960938 72.164062 239.820312 90.292969 242.710938 93.492188 C 243.410156 94.359375 244.3125 94.871094 245.414062 95.023438 C 246.089844 94.953125 246.726562 94.769531 247.335938 94.46875 C 247.941406 94.167969 248.476562 93.769531 248.9375 93.273438 C 249.398438 92.777344 249.757812 92.214844 250.015625 91.589844 C 250.273438 90.964844 250.410156 90.3125 250.429688 89.632812 C 250.304688 88.515625 249.828125 87.574219 248.992188 86.820312 Z M 239.558594 103.0625 L 239.558594 147.523438 C 239.539062 147.851562 239.488281 148.171875 239.402344 148.488281 C 239.320312 148.804688 239.207031 149.109375 239.066406 149.40625 C 238.921875 149.699219 238.753906 149.976562 238.554688 150.238281 C 238.359375 150.5 238.136719 150.742188 237.894531 150.960938 C 237.648438 151.175781 237.386719 151.371094 237.105469 151.535156 C 236.824219 151.703125 236.527344 151.839844 236.21875 151.949219 C 235.910156 152.058594 235.59375 152.136719 235.269531 152.183594 C 234.945312 152.230469 234.621094 152.246094 234.292969 152.230469 L 206.367188 152.230469 L 206.367188 119.191406 C 206.367188 118.734375 206.277344 118.296875 206.105469 117.875 C 205.929688 117.453125 205.679688 117.078125 205.355469 116.757812 C 205.03125 116.433594 204.660156 116.183594 204.238281 116.007812 C 203.816406 115.832031 203.378906 115.746094 202.921875 115.746094 L 182.671875 115.746094 C 182.214844 115.742188 181.773438 115.828125 181.347656 116.003906 C 180.925781 116.179688 180.550781 116.425781 180.222656 116.75 C 179.898438 117.074219 179.648438 117.445312 179.472656 117.871094 C 179.292969 118.292969 179.207031 118.734375 179.203125 119.191406 L 179.203125 152.238281 L 151.269531 152.238281 C 150.945312 152.253906 150.621094 152.238281 150.296875 152.191406 C 149.976562 152.144531 149.660156 152.070312 149.351562 151.960938 C 149.046875 151.851562 148.75 151.714844 148.472656 151.546875 C 148.191406 151.382812 147.929688 151.191406 147.6875 150.972656 C 147.441406 150.757812 147.222656 150.515625 147.027344 150.257812 C 146.832031 149.996094 146.660156 149.71875 146.519531 149.425781 C 146.375 149.132812 146.265625 148.828125 146.183594 148.515625 C 146.097656 148.199219 146.046875 147.878906 146.027344 147.550781 L 146.027344 103.277344 C 146.023438 102.335938 146.355469 101.53125 147.019531 100.863281 C 161.824219 86.085938 176.648438 71.339844 191.484375 56.628906 C 191.691406 56.429688 191.925781 56.277344 192.191406 56.167969 C 192.457031 56.0625 192.730469 56.011719 193.015625 56.011719 C 193.304688 56.015625 193.578125 56.070312 193.839844 56.179688 C 194.105469 56.292969 194.339844 56.449219 194.539062 56.648438 L 238.546875 100.648438 C 239.21875 101.316406 239.554688 102.125 239.558594 103.070312 Z M 239.558594 103.0625 " fill-opacity="1" fill-rule="nonzero"/></g><g clip-path="url(#3dcbf0b595)"><path fill="#537653" d="M 183.703125 144.300781 C 183.703125 144.300781 191.292969 143.78125 191.34375 151.945312 C 183.183594 151.894531 183.703125 144.300781 183.703125 144.300781 Z M 183.703125 144.300781 " fill-opacity="1" fill-rule="nonzero"/></g><g clip-path="url(#27229b2723)"><path fill="#537653" d="M 191.789062 152.390625 L 191.34375 152.386719 C 188.710938 152.371094 186.660156 151.59375 185.253906 150.078125 C 183.054688 147.707031 183.253906 144.410156 183.261719 144.273438 L 183.289062 143.890625 L 183.671875 143.863281 C 183.671875 143.863281 183.78125 143.855469 183.972656 143.855469 C 185.265625 143.855469 191.738281 144.246094 191.785156 151.941406 Z M 184.140625 144.738281 C 184.164062 145.640625 184.386719 147.851562 185.90625 149.484375 C 187.0625 150.722656 188.738281 151.398438 190.894531 151.492188 C 190.628906 145.441406 185.882812 144.777344 184.140625 144.738281 Z M 184.140625 144.738281 " fill-opacity="1" fill-rule="nonzero"/></g><path fill="#537653" d="M 192.746094 136.269531 C 192.746094 136.269531 198.480469 141.269531 192.746094 147.078125 C 187.007812 141.269531 192.746094 136.269531 192.746094 136.269531 Z M 192.746094 136.269531 " fill-opacity="1" fill-rule="nonzero"/><g clip-path="url(#16f851afdd)"><path fill="#537653" d="M 192.746094 147.707031 L 192.429688 147.390625 C 190.582031 145.515625 189.679688 143.519531 189.757812 141.453125 C 189.878906 138.21875 192.347656 136.027344 192.453125 135.9375 L 192.746094 135.683594 L 193.035156 135.9375 C 193.140625 136.027344 195.609375 138.21875 195.730469 141.453125 C 195.808594 143.519531 194.910156 145.515625 193.058594 147.390625 Z M 192.746094 136.890625 C 192.125 137.542969 190.71875 139.265625 190.640625 141.492188 C 190.578125 143.1875 191.285156 144.847656 192.746094 146.4375 C 194.203125 144.847656 194.910156 143.1875 194.847656 141.492188 C 194.769531 139.265625 193.363281 137.542969 192.746094 136.890625 Z M 192.746094 136.890625 " fill-opacity="1" fill-rule="nonzero"/></g><g clip-path="url(#47470c1c7b)"><path fill="#537653" d="M 202 144.300781 C 202 144.300781 194.410156 143.78125 194.355469 151.945312 C 202.519531 151.894531 202 144.300781 202 144.300781 Z M 202 144.300781 " fill-opacity="1" fill-rule="nonzero"/></g><g clip-path="url(#3679f5aca8)"><path fill="#537653" d="M 193.914062 152.390625 L 193.917969 151.941406 C 193.964844 144.246094 200.433594 143.855469 201.730469 143.855469 C 201.921875 143.855469 202.03125 143.863281 202.03125 143.863281 L 202.414062 143.890625 L 202.441406 144.273438 C 202.449219 144.410156 202.648438 147.707031 200.445312 150.078125 C 199.042969 151.59375 196.992188 152.371094 194.359375 152.386719 Z M 201.5625 144.738281 C 199.824219 144.777344 195.074219 145.441406 194.808594 151.492188 C 196.96875 151.398438 198.644531 150.722656 199.800781 149.476562 C 201.320312 147.839844 201.539062 145.636719 201.5625 144.738281 Z M 201.5625 144.738281 " fill-opacity="1" fill-rule="nonzero"/></g><g transform="matrix(1, 0, 0, 1, 305, 68)"><g clip-path="url(#0d131cc316)"><g fill="#537653" fill-opacity="1"><g transform="translate(0.806751, 35.904762)"><g><path d="M 3 -27.828125 L 25.46875 -27.828125 L 25.46875 -21.15625 L 11.921875 -21.15625 L 11.921875 -16.375 L 23.578125 -16.375 L 23.578125 -9.984375 L 11.921875 -9.984375 L 11.921875 0 L 3 0 Z M 3 -27.828125 "/></g></g></g><g fill="#537653" fill-opacity="1"><g transform="translate(27.772881, 35.904762)"><g><path d="M 21.640625 0 L 20.46875 -3.921875 L 10.71875 -3.921875 L 9.546875 0 L 0.40625 0 L 10.546875 -27.828125 L 20.953125 -27.828125 L 31.09375 0 Z M 12.578125 -10.15625 L 18.59375 -10.15625 L 15.6875 -20.0625 L 15.53125 -20.0625 Z M 12.578125 -10.15625 "/></g></g></g><g fill="#537653" fill-opacity="1"><g transform="translate(59.226626, 35.904762)"><g><path d="M 26.890625 0 L 26.890625 -10.03125 C 26.890625 -11.269531 26.9375 -12.539062 27.03125 -13.84375 C 27.125 -15.15625 27.222656 -16.253906 27.328125 -17.140625 C 27.441406 -18.035156 27.507812 -18.601562 27.53125 -18.84375 L 27.375 -18.84375 L 22.234375 0 L 15.25 0 L 10.0625 -18.796875 L 9.90625 -18.796875 C 9.9375 -18.554688 10.007812 -18 10.125 -17.125 C 10.25 -16.25 10.363281 -15.15625 10.46875 -13.84375 C 10.582031 -12.539062 10.640625 -11.269531 10.640625 -10.03125 L 10.640625 0 L 2.421875 0 L 2.421875 -27.828125 L 15.046875 -27.828125 L 19.25 -11.765625 L 19.40625 -11.765625 L 23.578125 -27.828125 L 35.75 -27.828125 L 35.75 0 Z M 26.890625 0 "/></g></g></g><g fill="#537653" fill-opacity="1"><g transform="translate(97.39158, 35.904762)"><g><path d="M 3.390625 0 L 3.390625 -27.828125 L 12.328125 -27.828125 L 12.328125 0 Z M 3.390625 0 "/></g></g></g><g fill="#537653" fill-opacity="1"><g transform="translate(113.118459, 35.904762)"><g><path d="M 3 -27.828125 L 11.921875 -27.828125 L 11.921875 -7.109375 L 26.203125 -7.109375 L 26.203125 0 L 3 0 Z M 3 -27.828125 "/></g></g></g><g fill="#537653" fill-opacity="1"><g transform="translate(140.084589, 35.904762)"><g><path d="M 20.265625 0 L 11.328125 0 L 11.328125 -10.796875 L 0.28125 -27.828125 L 10.546875 -27.828125 L 15.890625 -18.5625 L 16.046875 -18.5625 L 21.390625 -27.828125 L 31.140625 -27.828125 L 20.265625 -10.796875 Z M 20.265625 0 "/></g></g></g><g fill="#537653" fill-opacity="1"><g transform="translate(171.540587, 35.904762)"><g/></g></g></g></g><g transform="matrix(1, 0, 0, 1, 274, 120)"><g clip-path="url(#9368c77469)"><g fill="#537653" fill-opacity="1"><g transform="translate(0.79328, 36.625629)"><g><path d="M 14.703125 -28.34375 C 18.265625 -28.34375 21.191406 -27.617188 23.484375 -26.171875 C 25.785156 -24.734375 26.960938 -22.597656 27.015625 -19.765625 L 27.015625 -19.28125 L 18.625 -19.28125 L 18.625 -19.4375 C 18.625 -20.25 18.328125 -20.925781 17.734375 -21.46875 C 17.140625 -22.007812 16.238281 -22.28125 15.03125 -22.28125 C 13.84375 -22.28125 12.929688 -22.101562 12.296875 -21.75 C 11.660156 -21.394531 11.34375 -20.960938 11.34375 -20.453125 C 11.34375 -19.722656 11.773438 -19.179688 12.640625 -18.828125 C 13.503906 -18.484375 14.894531 -18.117188 16.8125 -17.734375 C 19.050781 -17.273438 20.890625 -16.796875 22.328125 -16.296875 C 23.773438 -15.796875 25.039062 -14.976562 26.125 -13.84375 C 27.207031 -12.71875 27.757812 -11.179688 27.78125 -9.234375 C 27.78125 -5.941406 26.664062 -3.5 24.4375 -1.90625 C 22.207031 -0.3125 19.234375 0.484375 15.515625 0.484375 C 11.160156 0.484375 7.773438 -0.242188 5.359375 -1.703125 C 2.941406 -3.160156 1.734375 -5.738281 1.734375 -9.4375 L 10.203125 -9.4375 C 10.203125 -8.03125 10.566406 -7.085938 11.296875 -6.609375 C 12.023438 -6.140625 13.160156 -5.90625 14.703125 -5.90625 C 15.835938 -5.90625 16.773438 -6.023438 17.515625 -6.265625 C 18.253906 -6.515625 18.625 -7.019531 18.625 -7.78125 C 18.625 -8.445312 18.210938 -8.945312 17.390625 -9.28125 C 16.566406 -9.625 15.222656 -9.988281 13.359375 -10.375 C 11.097656 -10.851562 9.222656 -11.351562 7.734375 -11.875 C 6.253906 -12.40625 4.957031 -13.28125 3.84375 -14.5 C 2.738281 -15.71875 2.1875 -17.363281 2.1875 -19.4375 C 2.1875 -22.488281 3.367188 -24.734375 5.734375 -26.171875 C 8.097656 -27.617188 11.085938 -28.34375 14.703125 -28.34375 Z M 14.703125 -28.34375 "/></g></g></g><g fill="#537653" fill-opacity="1"><g transform="translate(30.034699, 36.625629)"><g><path d="M 3 -27.859375 L 27.09375 -27.859375 L 27.09375 -21.1875 L 11.953125 -21.1875 L 11.953125 -17.328125 L 24.90625 -17.328125 L 24.90625 -10.9375 L 11.953125 -10.9375 L 11.953125 -6.6875 L 27.375 -6.6875 L 27.375 0 L 3 0 Z M 3 -27.859375 "/></g></g></g><g fill="#537653" fill-opacity="1"><g transform="translate(59.276118, 36.625629)"><g><path d="M 16.28125 -28.34375 C 20.414062 -28.34375 23.679688 -27.3125 26.078125 -25.25 C 28.484375 -23.1875 29.6875 -20.238281 29.6875 -16.40625 L 21.140625 -16.40625 C 21.140625 -18.019531 20.710938 -19.300781 19.859375 -20.25 C 19.015625 -21.195312 17.804688 -21.671875 16.234375 -21.671875 C 14.429688 -21.671875 13.101562 -21.101562 12.25 -19.96875 C 11.394531 -18.832031 10.96875 -17.253906 10.96875 -15.234375 L 10.96875 -12.640625 C 10.96875 -10.640625 11.394531 -9.066406 12.25 -7.921875 C 13.101562 -6.773438 14.40625 -6.203125 16.15625 -6.203125 C 17.882812 -6.203125 19.191406 -6.644531 20.078125 -7.53125 C 20.972656 -8.425781 21.421875 -9.679688 21.421875 -11.296875 L 29.6875 -11.296875 C 29.6875 -7.492188 28.519531 -4.578125 26.1875 -2.546875 C 23.851562 -0.523438 20.550781 0.484375 16.28125 0.484375 C 11.53125 0.484375 7.929688 -0.726562 5.484375 -3.15625 C 3.046875 -5.582031 1.828125 -9.175781 1.828125 -13.9375 C 1.828125 -18.6875 3.046875 -22.273438 5.484375 -24.703125 C 7.929688 -27.128906 11.53125 -28.34375 16.28125 -28.34375 Z M 16.28125 -28.34375 "/></g></g></g><g fill="#537653" fill-opacity="1"><g transform="translate(90.785568, 36.625629)"><g><path d="M 30.734375 -11.21875 C 30.734375 -7.414062 29.53125 -4.515625 27.125 -2.515625 C 24.726562 -0.515625 21.316406 0.484375 16.890625 0.484375 C 12.460938 0.484375 9.039062 -0.515625 6.625 -2.515625 C 4.207031 -4.515625 3 -7.414062 3 -11.21875 L 3 -27.859375 L 11.953125 -27.859375 L 11.953125 -11.34375 C 11.953125 -9.769531 12.367188 -8.519531 13.203125 -7.59375 C 14.035156 -6.664062 15.25 -6.203125 16.84375 -6.203125 C 18.4375 -6.203125 19.65625 -6.671875 20.5 -7.609375 C 21.351562 -8.554688 21.78125 -9.800781 21.78125 -11.34375 L 21.78125 -27.859375 L 30.734375 -27.859375 Z M 30.734375 -11.21875 "/></g></g></g><g fill="#537653" fill-opacity="1"><g transform="translate(124.522557, 36.625629)"><g><path d="M 29.4375 -19.3125 C 29.4375 -17.613281 28.976562 -16.078125 28.0625 -14.703125 C 27.144531 -13.328125 25.8125 -12.3125 24.0625 -11.65625 L 30.25 0 L 20.203125 0 L 15.265625 -10.171875 L 11.953125 -10.171875 L 11.953125 0 L 3 0 L 3 -27.859375 L 20.046875 -27.859375 C 22.046875 -27.859375 23.753906 -27.472656 25.171875 -26.703125 C 26.585938 -25.941406 27.648438 -24.90625 28.359375 -23.59375 C 29.078125 -22.28125 29.4375 -20.851562 29.4375 -19.3125 Z M 20.328125 -18.953125 C 20.328125 -19.679688 20.082031 -20.285156 19.59375 -20.765625 C 19.113281 -21.253906 18.519531 -21.5 17.8125 -21.5 L 11.953125 -21.5 L 11.953125 -16.359375 L 17.8125 -16.359375 C 18.519531 -16.359375 19.113281 -16.609375 19.59375 -17.109375 C 20.082031 -17.609375 20.328125 -18.222656 20.328125 -18.953125 Z M 20.328125 -18.953125 "/></g></g></g><g fill="#537653" fill-opacity="1"><g transform="translate(156.032007, 36.625629)"><g><path d="M 3 -27.859375 L 27.09375 -27.859375 L 27.09375 -21.1875 L 11.953125 -21.1875 L 11.953125 -17.328125 L 24.90625 -17.328125 L 24.90625 -10.9375 L 11.953125 -10.9375 L 11.953125 -6.6875 L 27.375 -6.6875 L 27.375 0 L 3 0 Z M 3 -27.859375 "/></g></g></g></g></g></svg>