<svg xmlns="http://www.w3.org/2000/svg" xmlns:xlink="http://www.w3.org/1999/xlink" width="800" zoomAndPan="magnify" viewBox="0 0 600 225" height="300" preserveAspectRatio="xMidYMid meet" version="1.0"><defs><g/><clipPath id="dcec7a6d7c"><path d="M 206.691406 95 L 219 95 L 219 102 L 206.691406 102 Z M 206.691406 95 " clip-rule="nonzero"/></clipPath><clipPath id="4a4791ec91"><path d="M 352 92 L 364.191406 92 L 364.191406 99 L 352 99 Z M 352 92 " clip-rule="nonzero"/></clipPath><clipPath id="a2fe807f7d"><path d="M 298 38.082031 L 303 38.082031 L 303 47 L 298 47 Z M 298 38.082031 " clip-rule="nonzero"/></clipPath><clipPath id="d00ad34876"><path d="M 260 38.082031 L 265 38.082031 L 265 47 L 260 47 Z M 260 38.082031 " clip-rule="nonzero"/></clipPath><clipPath id="bc07731235"><path d="M 206.691406 87 L 216 87 L 216 92 L 206.691406 92 Z M 206.691406 87 " clip-rule="nonzero"/></clipPath><clipPath id="f8a80329db"><path d="M 210 117 L 362 117 L 362 186.582031 L 210 186.582031 Z M 210 117 " clip-rule="nonzero"/></clipPath><clipPath id="2846572857"><path d="M 0.679688 1 L 3 1 L 3 5 L 0.679688 5 Z M 0.679688 1 " clip-rule="nonzero"/></clipPath><clipPath id="f214cc6fa8"><rect x="0" width="29" y="0" height="6"/></clipPath></defs><path fill="#39b54a" d="M 303.175781 88.175781 C 263.714844 114.632812 292.996094 146.738281 279.144531 162.007812 C 297.195312 148.621094 284.707031 128.855469 317.449219 115.785156 C 304.855469 116.410156 295.304688 129.066406 291.105469 123.730469 C 286.910156 118.503906 290.371094 97.691406 303.175781 88.175781 Z M 303.175781 88.175781 " fill-opacity="1" fill-rule="nonzero"/><path fill="#8cc63f" d="M 279.667969 155.3125 C 286.070312 150.085938 273.894531 118.503906 284.808594 102.605469 C 274.210938 110.136719 279.351562 125.824219 275.890625 126.449219 C 272.425781 127.078125 267.179688 119.546875 260.882812 120.28125 C 271.585938 125.089844 280.296875 140.148438 279.667969 155.3125 Z M 279.667969 155.3125 " fill-opacity="1" fill-rule="nonzero"/><path fill="#8cc63f" d="M 275.890625 88.175781 C 275.890625 91.730469 277.777344 94.972656 280.824219 97.480469 C 283.867188 94.972656 285.753906 91.730469 285.753906 88.175781 C 285.753906 84.621094 283.867188 81.378906 280.824219 78.867188 C 277.675781 81.273438 275.890625 84.515625 275.890625 88.175781 Z M 275.890625 88.175781 " fill-opacity="1" fill-rule="nonzero"/><path fill="#39b54a" d="M 275.050781 51.15625 C 275.050781 54.710938 276.9375 57.953125 279.984375 60.460938 C 283.027344 57.953125 284.914062 54.710938 284.914062 51.15625 C 284.914062 47.597656 283.027344 44.355469 279.984375 41.847656 C 276.9375 44.355469 275.050781 47.597656 275.050781 51.15625 Z M 275.050781 51.15625 " fill-opacity="1" fill-rule="nonzero"/><path fill="#006837" d="M 291.105469 73.847656 C 290.269531 77.296875 291.316406 80.957031 293.625 84.097656 C 297.195312 82.421875 299.714844 79.597656 300.65625 76.148438 C 301.496094 72.699219 300.449219 69.039062 298.140625 65.898438 C 294.464844 67.675781 291.945312 70.398438 291.105469 73.847656 Z M 291.105469 73.847656 " fill-opacity="1" fill-rule="nonzero"/><path fill="#006837" d="M 258.78125 75.101562 C 258.78125 78.660156 260.671875 81.898438 263.714844 84.410156 C 266.757812 81.898438 268.648438 78.660156 268.648438 75.101562 C 268.648438 71.546875 266.757812 68.304688 263.714844 65.796875 C 260.671875 68.304688 258.78125 71.546875 258.78125 75.101562 Z M 258.78125 75.101562 " fill-opacity="1" fill-rule="nonzero"/><path fill="#006837" d="M 330.042969 57.953125 C 327.316406 60.253906 326.054688 63.808594 326.160156 67.78125 C 330.042969 68.410156 333.714844 67.675781 336.445312 65.375 C 339.175781 63.078125 340.433594 59.519531 340.328125 55.546875 C 336.445312 54.917969 332.773438 55.652344 330.042969 57.953125 Z M 330.042969 57.953125 " fill-opacity="1" fill-rule="nonzero"/><path fill="#39b54a" d="M 310.207031 60.042969 C 308.214844 63.078125 308.003906 66.738281 309.261719 70.5 C 313.148438 70.082031 316.503906 68.304688 318.5 65.273438 C 320.492188 62.238281 320.703125 58.578125 319.445312 54.816406 C 315.457031 55.234375 312.203125 57.011719 310.207031 60.042969 Z M 310.207031 60.042969 " fill-opacity="1" fill-rule="nonzero"/><path fill="#8cc63f" d="M 312.515625 77.296875 C 309.367188 78.972656 307.375 82.214844 306.640625 86.082031 C 310.3125 87.546875 314.089844 87.652344 317.238281 85.875 C 320.386719 84.199219 322.382812 80.957031 323.117188 77.089844 C 319.445312 75.625 315.664062 75.519531 312.515625 77.296875 Z M 312.515625 77.296875 " fill-opacity="1" fill-rule="nonzero"/><path fill="#8cc63f" d="M 226.984375 124.042969 C 223.835938 125.71875 221.839844 128.960938 221.105469 132.828125 C 224.78125 134.292969 228.558594 134.398438 231.707031 132.621094 C 234.855469 130.945312 236.847656 127.707031 237.582031 123.835938 C 233.910156 122.371094 230.132812 122.265625 226.984375 124.042969 Z M 226.984375 124.042969 " fill-opacity="1" fill-rule="nonzero"/><path fill="#8cc63f" d="M 330.566406 110.449219 C 327 110.34375 323.640625 112.019531 321.019531 114.945312 C 323.433594 118.082031 326.582031 120.070312 330.253906 120.175781 C 333.820312 120.28125 337.179688 118.605469 339.804688 115.679688 C 337.390625 112.542969 334.136719 110.554688 330.566406 110.449219 Z M 330.566406 110.449219 " fill-opacity="1" fill-rule="nonzero"/><path fill="#39b54a" d="M 217.851562 104.59375 C 214.285156 104.488281 210.925781 106.164062 208.300781 109.089844 C 210.714844 112.226562 213.863281 114.214844 217.539062 114.320312 C 221.105469 114.421875 224.464844 112.75 227.089844 109.824219 C 224.675781 106.683594 221.527344 104.699219 217.851562 104.59375 Z M 217.851562 104.59375 " fill-opacity="1" fill-rule="nonzero"/><path fill="#39b54a" d="M 352.710938 100.621094 C 349.144531 100.515625 345.785156 102.1875 343.164062 105.117188 C 345.574219 108.253906 348.722656 110.242188 352.398438 110.34375 C 355.964844 110.449219 359.324219 108.777344 361.949219 105.847656 C 359.535156 102.710938 356.28125 100.722656 352.710938 100.621094 Z M 352.710938 100.621094 " fill-opacity="1" fill-rule="nonzero"/><path fill="#39b54a" d="M 250.808594 128.332031 C 247.867188 130.320312 246.1875 133.769531 245.875 137.640625 C 249.652344 138.6875 253.429688 138.371094 256.371094 136.386719 C 259.308594 134.398438 260.988281 130.945312 261.300781 127.078125 C 257.417969 126.03125 253.746094 126.34375 250.808594 128.332031 Z M 250.808594 128.332031 " fill-opacity="1" fill-rule="nonzero"/><path fill="#006837" d="M 245.453125 119.234375 C 248.707031 120.699219 252.484375 120.382812 256.054688 118.710938 C 255.003906 114.945312 252.800781 111.808594 249.546875 110.34375 C 246.292969 108.882812 242.515625 109.195312 238.949219 110.867188 C 239.996094 114.738281 242.199219 117.769531 245.453125 119.234375 Z M 245.453125 119.234375 " fill-opacity="1" fill-rule="nonzero"/><path fill="#8cc63f" d="M 226.039062 98.003906 C 229.292969 99.46875 233.070312 99.15625 236.640625 97.480469 C 235.589844 93.71875 233.386719 90.582031 230.132812 89.117188 C 226.878906 87.652344 223.101562 87.964844 219.53125 89.640625 C 220.582031 93.402344 222.785156 96.4375 226.039062 98.003906 Z M 226.039062 98.003906 " fill-opacity="1" fill-rule="nonzero"/><g clip-path="url(#dcec7a6d7c)"><path fill="#39b54a" d="M 212.1875 101.769531 C 214.390625 102.1875 216.699219 101.351562 218.585938 99.78125 C 217.328125 97.585938 215.542969 96.019531 213.234375 95.703125 C 211.03125 95.285156 208.722656 96.121094 206.832031 97.691406 C 208.09375 99.78125 209.875 101.351562 212.1875 101.769531 Z M 212.1875 101.769531 " fill-opacity="1" fill-rule="nonzero"/></g><path fill="#006837" d="M 212.710938 85.246094 C 214.914062 85.875 217.222656 85.457031 219.320312 84.097656 C 218.378906 81.796875 216.699219 80.019531 214.496094 79.390625 C 212.289062 78.761719 209.980469 79.179688 207.882812 80.539062 C 208.933594 82.839844 210.507812 84.515625 212.710938 85.246094 Z M 212.710938 85.246094 " fill-opacity="1" fill-rule="nonzero"/><path fill="#39b54a" d="M 230.238281 61.925781 C 231.285156 63.914062 233.28125 65.273438 235.800781 65.691406 C 236.742188 63.390625 236.847656 60.984375 235.800781 58.996094 C 234.75 57.011719 232.753906 55.652344 230.238281 55.234375 C 229.292969 57.535156 229.1875 59.9375 230.238281 61.925781 Z M 230.238281 61.925781 " fill-opacity="1" fill-rule="nonzero"/><path fill="#006837" d="M 271.902344 69.976562 C 271.902344 72.277344 273.054688 74.371094 274.945312 75.9375 C 276.9375 74.371094 278.09375 72.277344 278.09375 69.976562 C 278.09375 67.675781 276.9375 65.585938 275.050781 64.015625 C 273.160156 65.691406 272.007812 67.675781 271.902344 69.976562 Z M 271.902344 69.976562 " fill-opacity="1" fill-rule="nonzero"/><path fill="#8cc63f" d="M 291.210938 56.59375 C 290.058594 58.578125 290.164062 60.984375 291.003906 63.285156 C 293.519531 62.867188 295.515625 61.613281 296.667969 59.625 C 297.824219 57.636719 297.71875 55.234375 296.878906 52.933594 C 294.359375 53.351562 292.261719 54.605469 291.210938 56.59375 Z M 291.210938 56.59375 " fill-opacity="1" fill-rule="nonzero"/><path fill="#39b54a" d="M 267.597656 88.382812 C 267.597656 90.683594 268.753906 92.777344 270.640625 94.34375 C 272.636719 92.777344 273.789062 90.683594 273.789062 88.382812 C 273.789062 86.082031 272.636719 83.992188 270.746094 82.421875 C 268.859375 84.097656 267.597656 86.082031 267.597656 88.382812 Z M 267.597656 88.382812 " fill-opacity="1" fill-rule="nonzero"/><path fill="#39b54a" d="M 323.535156 88.59375 C 322.277344 90.476562 322.066406 92.878906 322.695312 95.285156 C 325.214844 95.078125 327.316406 94.03125 328.679688 92.148438 C 329.9375 90.265625 330.148438 87.859375 329.519531 85.457031 C 327 85.769531 324.902344 86.710938 323.535156 88.59375 Z M 323.535156 88.59375 " fill-opacity="1" fill-rule="nonzero"/><path fill="#8cc63f" d="M 313.671875 100.828125 C 312.097656 102.5 311.46875 104.800781 311.78125 107.3125 C 314.300781 107.523438 316.609375 106.894531 318.183594 105.222656 C 319.757812 103.546875 320.386719 101.246094 320.074219 98.738281 C 317.554688 98.527344 315.246094 99.261719 313.671875 100.828125 Z M 313.671875 100.828125 " fill-opacity="1" fill-rule="nonzero"/><path fill="#006837" d="M 303.804688 104.488281 C 302.757812 105.535156 302.335938 107.101562 302.546875 108.777344 C 304.226562 108.882812 305.800781 108.460938 306.851562 107.417969 C 307.898438 106.371094 308.320312 104.800781 308.109375 103.128906 C 306.429688 102.921875 304.855469 103.339844 303.804688 104.488281 Z M 303.804688 104.488281 " fill-opacity="1" fill-rule="nonzero"/><path fill="#8cc63f" d="M 344.738281 63.285156 C 342.847656 64.4375 341.691406 66.632812 341.273438 69.039062 C 343.6875 69.875 346.101562 69.769531 347.988281 68.515625 C 349.878906 67.363281 351.035156 65.167969 351.453125 62.761719 C 349.144531 62.03125 346.730469 62.136719 344.738281 63.285156 Z M 344.738281 63.285156 " fill-opacity="1" fill-rule="nonzero"/><path fill="#006837" d="M 355.125 82.003906 C 352.816406 82.320312 351.035156 83.78125 349.667969 85.980469 C 351.558594 87.652344 353.761719 88.488281 356.070312 88.175781 C 358.378906 87.859375 360.164062 86.398438 361.527344 84.199219 C 359.640625 82.527344 357.332031 81.691406 355.125 82.003906 Z M 355.125 82.003906 " fill-opacity="1" fill-rule="nonzero"/><g clip-path="url(#4a4791ec91)"><path fill="#8cc63f" d="M 358.800781 92.253906 C 356.59375 91.835938 354.285156 92.671875 352.398438 94.242188 C 353.65625 96.4375 355.441406 98.003906 357.75 98.320312 C 359.953125 98.738281 362.261719 97.902344 364.152344 96.332031 C 362.890625 94.136719 361.109375 92.671875 358.800781 92.253906 Z M 358.800781 92.253906 " fill-opacity="1" fill-rule="nonzero"/></g><path fill="#8cc63f" d="M 339.804688 125.300781 C 338.125 123.835938 335.710938 123.3125 333.191406 123.730469 C 333.085938 126.242188 333.925781 128.542969 335.710938 130.003906 C 337.390625 131.46875 339.804688 131.992188 342.324219 131.574219 C 342.324219 129.066406 341.484375 126.765625 339.804688 125.300781 Z M 339.804688 125.300781 " fill-opacity="1" fill-rule="nonzero"/><path fill="#006837" d="M 347.886719 113.691406 C 346.730469 112.644531 345.050781 112.332031 343.371094 112.644531 C 343.371094 114.421875 343.898438 115.992188 345.050781 117.039062 C 346.207031 118.082031 347.886719 118.398438 349.5625 118.082031 C 349.667969 116.304688 349.039062 114.738281 347.886719 113.691406 Z M 347.886719 113.691406 " fill-opacity="1" fill-rule="nonzero"/><path fill="#8cc63f" d="M 328.257812 103.546875 C 326.894531 104.28125 325.949219 105.640625 325.53125 107.417969 C 327.105469 108.042969 328.785156 108.148438 330.253906 107.417969 C 331.617188 106.683594 332.5625 105.324219 332.980469 103.546875 C 331.304688 102.921875 329.730469 102.816406 328.257812 103.546875 Z M 328.257812 103.546875 " fill-opacity="1" fill-rule="nonzero"/><path fill="#8cc63f" d="M 358.273438 74.058594 C 356.910156 74.789062 355.964844 76.148438 355.546875 77.925781 C 357.121094 78.554688 358.800781 78.660156 360.269531 77.925781 C 361.632812 77.195312 362.578125 75.835938 362.996094 74.058594 C 361.316406 73.429688 359.640625 73.324219 358.273438 74.058594 Z M 358.273438 74.058594 " fill-opacity="1" fill-rule="nonzero"/><path fill="#006837" d="M 328.050781 73.21875 C 326.683594 74.058594 325.949219 75.625 325.84375 77.296875 C 327.523438 77.820312 329.203125 77.613281 330.464844 76.777344 C 331.828125 75.9375 332.5625 74.371094 332.667969 72.699219 C 330.988281 72.277344 329.414062 72.382812 328.050781 73.21875 Z M 328.050781 73.21875 " fill-opacity="1" fill-rule="nonzero"/><path fill="#8cc63f" d="M 302.023438 63.703125 C 302.128906 65.273438 302.964844 66.738281 304.332031 67.78125 C 305.589844 66.632812 306.429688 65.167969 306.324219 63.597656 C 306.21875 62.03125 305.378906 60.566406 304.015625 59.519531 C 302.757812 60.566406 301.917969 62.03125 302.023438 63.703125 Z M 302.023438 63.703125 " fill-opacity="1" fill-rule="nonzero"/><g clip-path="url(#a2fe807f7d)"><path fill="#39b54a" d="M 298.453125 41.535156 C 298.035156 43.101562 298.453125 44.671875 299.398438 46.132812 C 300.972656 45.402344 302.128906 44.253906 302.546875 42.683594 C 302.964844 41.113281 302.546875 39.546875 301.601562 38.082031 C 300.027344 38.8125 298.875 39.964844 298.453125 41.535156 Z M 298.453125 41.535156 " fill-opacity="1" fill-rule="nonzero"/></g><path fill="#8cc63f" d="M 319.546875 68.410156 C 318.710938 69.769531 318.605469 71.441406 319.128906 73.011719 C 320.914062 72.800781 322.382812 71.964844 323.222656 70.710938 C 324.0625 69.351562 324.167969 67.675781 323.640625 66.109375 C 321.859375 66.316406 320.386719 67.15625 319.546875 68.410156 Z M 319.546875 68.410156 " fill-opacity="1" fill-rule="nonzero"/><path fill="#006837" d="M 325.53125 48.433594 C 324.691406 49.792969 324.585938 51.46875 325.109375 53.035156 C 326.894531 52.828125 328.363281 51.992188 329.203125 50.734375 C 330.042969 49.375 330.148438 47.703125 329.625 46.132812 C 327.839844 46.238281 326.371094 47.074219 325.53125 48.433594 Z M 325.53125 48.433594 " fill-opacity="1" fill-rule="nonzero"/><path fill="#8cc63f" d="M 346.625 55.753906 C 345.367188 56.695312 344.632812 58.160156 344.527344 59.9375 C 346.207031 60.355469 347.886719 60.148438 349.144531 59.207031 C 350.402344 58.265625 351.136719 56.800781 351.242188 55.023438 C 349.5625 54.605469 347.886719 54.816406 346.625 55.753906 Z M 346.625 55.753906 " fill-opacity="1" fill-rule="nonzero"/><path fill="#006837" d="M 353.867188 66.632812 C 352.609375 67.574219 351.871094 69.039062 351.769531 70.816406 C 353.445312 71.234375 355.125 71.023438 356.386719 70.082031 C 357.644531 69.140625 358.378906 67.675781 358.484375 65.898438 C 356.804688 65.480469 355.125 65.691406 353.867188 66.632812 Z M 353.867188 66.632812 " fill-opacity="1" fill-rule="nonzero"/><path fill="#8cc63f" d="M 304.332031 75.835938 C 303.492188 77.195312 303.386719 78.761719 303.910156 80.4375 C 305.695312 80.226562 307.164062 79.496094 308.003906 78.136719 C 308.84375 76.777344 308.949219 75.207031 308.425781 73.535156 C 306.640625 73.742188 305.171875 74.476562 304.332031 75.835938 Z M 304.332031 75.835938 " fill-opacity="1" fill-rule="nonzero"/><path fill="#8cc63f" d="M 311.152344 45.296875 C 310.523438 46.761719 310.835938 48.433594 311.675781 49.898438 C 313.355469 49.375 314.617188 48.332031 315.246094 46.867188 C 315.875 45.402344 315.558594 43.730469 314.722656 42.265625 C 312.9375 42.789062 311.675781 43.832031 311.152344 45.296875 Z M 311.152344 45.296875 " fill-opacity="1" fill-rule="nonzero"/><path fill="#39b54a" d="M 274.945312 104.90625 C 274.105469 106.265625 274 107.835938 274.527344 109.507812 C 276.308594 109.300781 277.777344 108.566406 278.617188 107.207031 C 279.457031 105.847656 279.5625 104.28125 279.039062 102.605469 C 277.253906 102.816406 275.785156 103.546875 274.945312 104.90625 Z M 274.945312 104.90625 " fill-opacity="1" fill-rule="nonzero"/><path fill="#006837" d="M 281.765625 71.859375 C 281.871094 73.429688 282.816406 74.789062 284.179688 75.835938 C 285.441406 74.578125 286.175781 73.117188 286.070312 71.546875 C 285.964844 69.976562 285.019531 68.617188 283.65625 67.574219 C 282.292969 68.722656 281.660156 70.1875 281.765625 71.859375 Z M 281.765625 71.859375 " fill-opacity="1" fill-rule="nonzero"/><path fill="#006837" d="M 289.324219 44.773438 C 288.902344 46.238281 289.21875 47.914062 290.164062 49.375 C 291.738281 48.75 292.996094 47.597656 293.417969 46.03125 C 293.835938 44.566406 293.519531 42.894531 292.578125 41.429688 C 291.003906 42.160156 289.847656 43.3125 289.324219 44.773438 Z M 289.324219 44.773438 " fill-opacity="1" fill-rule="nonzero"/><path fill="#39b54a" d="M 302.023438 51.574219 C 301.707031 53.140625 302.128906 54.710938 303.28125 56.070312 C 304.855469 55.234375 305.90625 54.082031 306.324219 52.515625 C 306.640625 50.945312 306.21875 49.375 305.066406 48.015625 C 303.492188 48.75 302.441406 50.003906 302.023438 51.574219 Z M 302.023438 51.574219 " fill-opacity="1" fill-rule="nonzero"/><path fill="#39b54a" d="M 268.648438 45.613281 C 268.753906 47.179688 269.699219 48.539062 271.0625 49.585938 C 272.320312 48.332031 273.054688 46.867188 272.953125 45.296875 C 272.847656 43.730469 271.902344 42.371094 270.539062 41.324219 C 269.171875 42.472656 268.542969 44.042969 268.648438 45.613281 Z M 268.648438 45.613281 " fill-opacity="1" fill-rule="nonzero"/><path fill="#8cc63f" d="M 304.75 93.820312 C 304.015625 95.179688 304.015625 96.855469 304.75 98.527344 C 306.429688 98.214844 307.898438 97.273438 308.632812 95.914062 C 309.367188 94.554688 309.367188 92.878906 308.632812 91.207031 C 306.851562 91.519531 305.484375 92.460938 304.75 93.820312 Z M 304.75 93.820312 " fill-opacity="1" fill-rule="nonzero"/><path fill="#8cc63f" d="M 295.621094 102.921875 C 295.304688 104.488281 295.933594 106.058594 296.984375 107.417969 C 298.558594 106.582031 299.609375 105.324219 299.816406 103.757812 C 300.132812 102.1875 299.503906 100.621094 298.453125 99.261719 C 296.984375 100.097656 295.933594 101.351562 295.621094 102.921875 Z M 295.621094 102.921875 " fill-opacity="1" fill-rule="nonzero"/><path fill="#8cc63f" d="M 287.433594 91.835938 C 287.222656 93.402344 287.855469 94.972656 289.113281 96.226562 C 290.582031 95.285156 291.527344 93.925781 291.738281 92.359375 C 291.945312 90.789062 291.316406 89.21875 290.058594 87.964844 C 288.589844 89.011719 287.644531 90.265625 287.433594 91.835938 Z M 287.433594 91.835938 " fill-opacity="1" fill-rule="nonzero"/><path fill="#39b54a" d="M 258.152344 92.984375 C 258.257812 94.554688 259.203125 95.914062 260.671875 96.960938 C 261.929688 95.703125 262.667969 94.242188 262.5625 92.671875 C 262.457031 91.101562 261.511719 89.742188 260.042969 88.699219 C 258.78125 89.847656 258.046875 91.417969 258.152344 92.984375 Z M 258.152344 92.984375 " fill-opacity="1" fill-rule="nonzero"/><path fill="#8cc63f" d="M 268.125 101.351562 C 268.226562 102.921875 269.171875 104.28125 270.640625 105.324219 C 271.902344 104.070312 272.636719 102.605469 272.53125 101.039062 C 272.425781 99.46875 271.480469 98.109375 270.011719 97.0625 C 268.648438 98.320312 268.019531 99.78125 268.125 101.351562 Z M 268.125 101.351562 " fill-opacity="1" fill-rule="nonzero"/><path fill="#8cc63f" d="M 256.894531 53.351562 C 257.207031 54.917969 258.257812 56.175781 259.726562 57.011719 C 260.882812 55.652344 261.40625 54.082031 261.09375 52.515625 C 260.777344 50.945312 259.726562 49.691406 258.257812 48.855469 C 257.207031 50.214844 256.683594 51.78125 256.894531 53.351562 Z M 256.894531 53.351562 " fill-opacity="1" fill-rule="nonzero"/><path fill="#8cc63f" d="M 234.328125 88.800781 C 235.695312 89.535156 237.375 89.535156 239.050781 88.90625 C 238.738281 87.234375 237.898438 85.769531 236.429688 85.039062 C 235.066406 84.304688 233.386719 84.304688 231.707031 84.933594 C 232.125 86.605469 232.964844 87.964844 234.328125 88.800781 Z M 234.328125 88.800781 " fill-opacity="1" fill-rule="nonzero"/><path fill="#006837" d="M 235.589844 74.578125 C 236.535156 75.835938 238.109375 76.460938 239.789062 76.566406 C 240.207031 74.894531 239.996094 73.21875 239.050781 71.964844 C 238.109375 70.710938 236.535156 70.082031 234.855469 69.976562 C 234.433594 71.652344 234.644531 73.324219 235.589844 74.578125 Z M 235.589844 74.578125 " fill-opacity="1" fill-rule="nonzero"/><path fill="#006837" d="M 257.945312 101.664062 C 258.886719 102.921875 260.460938 103.546875 262.140625 103.652344 C 262.5625 101.980469 262.351562 100.304688 261.40625 99.050781 C 260.460938 97.796875 258.886719 97.167969 257.207031 97.0625 C 256.789062 98.839844 257 100.410156 257.945312 101.664062 Z M 257.945312 101.664062 " fill-opacity="1" fill-rule="nonzero"/><path fill="#8cc63f" d="M 238.003906 53.769531 C 238.632812 55.234375 239.996094 56.175781 241.675781 56.695312 C 242.410156 55.128906 242.621094 53.457031 241.992188 51.992188 C 241.363281 50.632812 239.996094 49.585938 238.316406 49.0625 C 237.582031 50.632812 237.375 52.304688 238.003906 53.769531 Z M 238.003906 53.769531 " fill-opacity="1" fill-rule="nonzero"/><g clip-path="url(#d00ad34876)"><path fill="#006837" d="M 260.460938 43.519531 C 260.882812 45.089844 262.035156 46.238281 263.609375 46.972656 C 264.660156 45.507812 265.078125 43.9375 264.660156 42.371094 C 264.242188 40.800781 263.085938 39.652344 261.511719 38.917969 C 260.460938 40.382812 260.042969 42.054688 260.460938 43.519531 Z M 260.460938 43.519531 " fill-opacity="1" fill-rule="nonzero"/></g><path fill="#39b54a" d="M 247.972656 48.226562 C 248.394531 49.792969 249.546875 50.945312 251.121094 51.675781 C 252.171875 50.214844 252.589844 48.644531 252.171875 47.074219 C 251.75 45.507812 250.597656 44.355469 249.023438 43.625 C 247.972656 45.089844 247.554688 46.65625 247.972656 48.226562 Z M 247.972656 48.226562 " fill-opacity="1" fill-rule="nonzero"/><path fill="#8cc63f" d="M 264.136719 109.089844 C 264.871094 110.03125 266.023438 110.554688 267.390625 110.660156 C 267.703125 109.300781 267.492188 108.042969 266.757812 107.101562 C 266.023438 106.164062 264.871094 105.640625 263.503906 105.535156 C 263.296875 106.789062 263.402344 108.042969 264.136719 109.089844 Z M 264.136719 109.089844 " fill-opacity="1" fill-rule="nonzero"/><path fill="#39b54a" d="M 222.367188 63.914062 C 223.308594 65.167969 224.882812 65.796875 226.5625 65.898438 C 226.984375 64.226562 226.773438 62.554688 225.828125 61.296875 C 224.882812 60.042969 223.308594 59.417969 221.632812 59.3125 C 221.210938 61.089844 221.421875 62.65625 222.367188 63.914062 Z M 222.367188 63.914062 " fill-opacity="1" fill-rule="nonzero"/><path fill="#8cc63f" d="M 235.066406 107.523438 C 236.535156 108.042969 238.214844 107.835938 239.683594 107 C 239.15625 105.324219 238.109375 104.070312 236.640625 103.441406 C 235.167969 102.921875 233.492188 103.128906 232.019531 103.964844 C 232.546875 105.640625 233.59375 106.894531 235.066406 107.523438 Z M 235.066406 107.523438 " fill-opacity="1" fill-rule="nonzero"/><path fill="#39b54a" d="M 255.214844 111.390625 C 256.683594 111.914062 258.363281 111.703125 259.832031 110.867188 C 259.308594 109.195312 258.257812 107.941406 256.789062 107.3125 C 255.320312 106.789062 253.640625 107 252.171875 107.835938 C 252.695312 109.613281 253.746094 110.867188 255.214844 111.390625 Z M 255.214844 111.390625 " fill-opacity="1" fill-rule="nonzero"/><path fill="#39b54a" d="M 235.484375 118.921875 C 236.953125 118.398438 238.109375 117.144531 238.738281 115.574219 C 237.269531 114.632812 235.589844 114.320312 234.121094 114.84375 C 232.652344 115.363281 231.496094 116.621094 230.867188 118.1875 C 232.335938 119.128906 234.015625 119.445312 235.484375 118.921875 Z M 235.484375 118.921875 " fill-opacity="1" fill-rule="nonzero"/><path fill="#39b54a" d="M 254.691406 125.71875 C 256.160156 125.195312 257.3125 123.941406 257.945312 122.371094 C 256.472656 121.429688 254.796875 121.117188 253.324219 121.640625 C 251.855469 122.164062 250.703125 123.417969 250.074219 124.984375 C 251.542969 125.824219 253.222656 126.136719 254.691406 125.71875 Z M 254.691406 125.71875 " fill-opacity="1" fill-rule="nonzero"/><path fill="#006837" d="M 261.617188 117.980469 C 262.667969 117.664062 263.402344 116.828125 263.820312 115.785156 C 262.875 115.15625 261.722656 114.945312 260.777344 115.261719 C 259.726562 115.574219 258.992188 116.410156 258.574219 117.457031 C 259.519531 118.082031 260.566406 118.292969 261.617188 117.980469 Z M 261.617188 117.980469 " fill-opacity="1" fill-rule="nonzero"/><g clip-path="url(#bc07731235)"><path fill="#006837" d="M 210.820312 91.941406 C 212.394531 92.042969 213.863281 91.3125 215.125 89.953125 C 214.074219 88.59375 212.710938 87.652344 211.03125 87.546875 C 209.457031 87.441406 207.988281 88.175781 206.726562 89.535156 C 207.777344 90.894531 209.140625 91.835938 210.820312 91.941406 Z M 210.820312 91.941406 " fill-opacity="1" fill-rule="nonzero"/></g><path fill="#39b54a" d="M 224.988281 103.863281 C 226.457031 104.382812 228.136719 104.175781 229.605469 103.339844 C 229.082031 101.664062 228.03125 100.410156 226.5625 99.78125 C 225.09375 99.261719 223.414062 99.46875 221.945312 100.304688 C 222.46875 101.980469 223.519531 103.339844 224.988281 103.863281 Z M 224.988281 103.863281 " fill-opacity="1" fill-rule="nonzero"/><path fill="#8cc63f" d="M 251.855469 79.078125 C 251.855469 80.644531 252.800781 82.109375 254.164062 83.15625 C 255.53125 82.003906 256.265625 80.539062 256.160156 78.972656 C 256.160156 77.402344 255.214844 75.9375 253.851562 74.894531 C 252.589844 75.9375 251.855469 77.507812 251.855469 79.078125 Z M 251.855469 79.078125 " fill-opacity="1" fill-rule="nonzero"/><path fill="#39b54a" d="M 254.058594 64.121094 C 254.058594 65.691406 255.003906 67.15625 256.371094 68.199219 C 257.734375 67.050781 258.46875 65.585938 258.363281 64.015625 C 258.363281 62.449219 257.417969 60.984375 256.054688 59.9375 C 254.796875 61.089844 253.957031 62.554688 254.058594 64.121094 Z M 254.058594 64.121094 " fill-opacity="1" fill-rule="nonzero"/><path fill="#8cc63f" d="M 245.140625 103.757812 C 247.027344 105.011719 249.441406 105.222656 251.855469 104.59375 C 251.648438 102.082031 250.597656 99.992188 248.707031 98.632812 C 246.820312 97.378906 244.40625 97.167969 241.992188 97.796875 C 242.199219 100.410156 243.25 102.5 245.140625 103.757812 Z M 245.140625 103.757812 " fill-opacity="1" fill-rule="nonzero"/><path fill="#8cc63f" d="M 265.289062 57.324219 C 265.917969 59.519531 267.597656 61.195312 269.90625 62.238281 C 271.378906 60.148438 271.902344 57.847656 271.273438 55.652344 C 270.640625 53.457031 268.964844 51.78125 266.652344 50.734375 C 265.289062 52.828125 264.765625 55.128906 265.289062 57.324219 Z M 265.289062 57.324219 " fill-opacity="1" fill-rule="nonzero"/><path fill="#8cc63f" d="M 225.304688 122.371094 C 227.402344 121.324219 228.664062 119.339844 229.292969 116.933594 C 226.984375 115.886719 224.570312 115.785156 222.574219 116.828125 C 220.476562 117.875 219.21875 119.863281 218.585938 122.265625 C 220.894531 123.207031 223.308594 123.3125 225.304688 122.371094 Z M 225.304688 122.371094 " fill-opacity="1" fill-rule="nonzero"/><path fill="#006837" d="M 245.453125 129.796875 C 246.398438 127.707031 246.1875 125.300781 245.140625 123.105469 C 242.726562 123.730469 240.730469 125.089844 239.789062 127.183594 C 238.84375 129.273438 239.050781 131.679688 240.101562 133.875 C 242.515625 133.246094 244.511719 131.785156 245.453125 129.796875 Z M 245.453125 129.796875 " fill-opacity="1" fill-rule="nonzero"/><path fill="#006837" d="M 341.484375 98.214844 C 344.839844 96.960938 347.253906 94.03125 348.515625 90.371094 C 345.050781 88.382812 341.378906 87.859375 338.019531 89.117188 C 334.660156 90.371094 332.246094 93.300781 330.988281 96.960938 C 334.453125 98.945312 338.230469 99.46875 341.484375 98.214844 Z M 341.484375 98.214844 " fill-opacity="1" fill-rule="nonzero"/><path fill="#39b54a" d="M 344.210938 82.527344 C 347.78125 81.898438 350.613281 79.496094 352.609375 76.042969 C 349.5625 73.535156 345.996094 72.277344 342.53125 72.90625 C 338.964844 73.535156 336.128906 75.9375 334.136719 79.390625 C 337.074219 81.898438 340.644531 83.15625 344.210938 82.527344 Z M 344.210938 82.527344 " fill-opacity="1" fill-rule="nonzero"/><path fill="#006837" d="M 317.972656 131.46875 C 320.808594 133.667969 324.480469 134.292969 328.363281 133.457031 C 328.257812 129.484375 326.894531 126.03125 324.0625 123.835938 C 321.226562 121.640625 317.554688 121.011719 313.671875 121.847656 C 313.777344 125.71875 315.140625 129.273438 317.972656 131.46875 Z M 317.972656 131.46875 " fill-opacity="1" fill-rule="nonzero"/><path fill="#006837" d="M 221.945312 77.507812 C 224.78125 79.703125 228.453125 80.332031 232.335938 79.496094 C 232.230469 75.519531 230.867188 72.070312 228.03125 69.875 C 225.199219 67.675781 221.527344 67.050781 217.644531 67.886719 C 217.746094 71.757812 219.21875 75.3125 221.945312 77.507812 Z M 221.945312 77.507812 " fill-opacity="1" fill-rule="nonzero"/><path fill="#39b54a" d="M 243.25 90.476562 C 244.929688 93.613281 248.183594 95.601562 251.960938 96.4375 C 253.429688 92.777344 253.535156 89.011719 251.855469 85.875 C 250.175781 82.738281 246.925781 80.75 243.144531 79.914062 C 241.570312 83.574219 241.464844 87.339844 243.25 90.476562 Z M 243.25 90.476562 " fill-opacity="1" fill-rule="nonzero"/><path fill="#8cc63f" d="M 241.992188 66.421875 C 242.410156 69.976562 244.71875 73.011719 248.078125 75.101562 C 250.808594 72.175781 252.171875 68.722656 251.75 65.167969 C 251.332031 61.613281 249.023438 58.578125 245.664062 56.488281 C 242.9375 59.417969 241.570312 62.867188 241.992188 66.421875 Z M 241.992188 66.421875 " fill-opacity="1" fill-rule="nonzero"/><path fill="#8cc63f" d="M 275.261719 116.828125 C 275.261719 119.128906 273.371094 121.117188 270.957031 121.117188 C 268.648438 121.117188 266.652344 119.234375 266.652344 116.828125 C 266.652344 114.527344 268.542969 112.542969 270.957031 112.542969 C 273.371094 112.542969 275.261719 114.527344 275.261719 116.828125 Z M 275.261719 116.828125 " fill-opacity="1" fill-rule="nonzero"/><path fill="#39b54a" d="M 302.441406 115.785156 C 302.441406 118.816406 300.027344 121.222656 296.984375 121.222656 C 293.941406 121.222656 291.527344 118.816406 291.527344 115.785156 C 291.527344 112.75 293.941406 110.34375 296.984375 110.34375 C 300.027344 110.34375 302.441406 112.75 302.441406 115.785156 Z M 302.441406 115.785156 " fill-opacity="1" fill-rule="nonzero"/><g clip-path="url(#f8a80329db)"><path fill="#006837" d="M 294.78125 178.425781 C 289.742188 170.269531 289.324219 156.253906 290.476562 150.503906 C 283.027344 163.367188 281.136719 157.824219 272.113281 177.691406 C 240.835938 172.046875 216.171875 147.992188 210.402344 117.246094 C 213.550781 156.046875 246.1875 186.582031 285.964844 186.582031 C 325.742188 186.582031 358.378906 156.046875 361.527344 117.246094 C 355.546875 149.667969 328.46875 174.660156 294.78125 178.425781 Z M 294.78125 178.425781 " fill-opacity="1" fill-rule="nonzero"/></g><g transform="matrix(1, 0, 0, 1, 271, 178)"><g clip-path="url(#f214cc6fa8)"><g clip-path="url(#2846572857)"><g fill="#000000" fill-opacity="1"><g transform="translate(0.723043, 4.094522)"><g><path d="M 1.140625 0 L 0.671875 0 L 0.671875 -1.828125 L 0.0625 -1.828125 L 0.0625 -2.21875 L 1.734375 -2.21875 L 1.734375 -1.828125 L 1.140625 -1.828125 Z M 1.140625 0 "/></g></g></g></g><g fill="#000000" fill-opacity="1"><g transform="translate(2.521881, 4.094522)"><g><path d="M 1.8125 0 L 1.34375 0 L 1.34375 -0.984375 C 1.34375 -1.234375 1.253906 -1.359375 1.078125 -1.359375 C 0.941406 -1.359375 0.84375 -1.3125 0.78125 -1.21875 C 0.726562 -1.132812 0.703125 -0.992188 0.703125 -0.796875 L 0.703125 0 L 0.25 0 L 0.25 -2.359375 L 0.703125 -2.359375 L 0.703125 -1.875 C 0.703125 -1.84375 0.703125 -1.753906 0.703125 -1.609375 L 0.6875 -1.484375 L 0.703125 -1.484375 C 0.804688 -1.648438 0.972656 -1.734375 1.203125 -1.734375 C 1.398438 -1.734375 1.550781 -1.675781 1.65625 -1.5625 C 1.757812 -1.457031 1.8125 -1.304688 1.8125 -1.109375 Z M 1.8125 0 "/></g></g></g><g fill="#000000" fill-opacity="1"><g transform="translate(4.563394, 4.094522)"><g><path d="M 0.953125 -1.40625 C 0.847656 -1.40625 0.765625 -1.375 0.703125 -1.3125 C 0.648438 -1.25 0.625 -1.160156 0.625 -1.046875 L 1.265625 -1.046875 C 1.265625 -1.160156 1.234375 -1.25 1.171875 -1.3125 C 1.117188 -1.375 1.046875 -1.40625 0.953125 -1.40625 Z M 1.015625 0.03125 C 0.734375 0.03125 0.515625 -0.0390625 0.359375 -0.1875 C 0.210938 -0.34375 0.140625 -0.5625 0.140625 -0.84375 C 0.140625 -1.125 0.207031 -1.34375 0.34375 -1.5 C 0.488281 -1.65625 0.6875 -1.734375 0.9375 -1.734375 C 1.175781 -1.734375 1.363281 -1.660156 1.5 -1.515625 C 1.632812 -1.378906 1.703125 -1.191406 1.703125 -0.953125 L 1.703125 -0.734375 L 0.609375 -0.734375 C 0.609375 -0.597656 0.644531 -0.492188 0.71875 -0.421875 C 0.789062 -0.347656 0.894531 -0.3125 1.03125 -0.3125 C 1.132812 -0.3125 1.226562 -0.320312 1.3125 -0.34375 C 1.40625 -0.363281 1.503906 -0.398438 1.609375 -0.453125 L 1.609375 -0.09375 C 1.523438 -0.0507812 1.4375 -0.0195312 1.34375 0 C 1.25 0.0195312 1.140625 0.03125 1.015625 0.03125 Z M 1.3125 -1.890625 C 1.15625 -1.984375 1.035156 -2.070312 0.953125 -2.15625 C 0.867188 -2.070312 0.753906 -1.984375 0.609375 -1.890625 L 0.296875 -1.890625 L 0.296875 -1.921875 C 0.484375 -2.117188 0.613281 -2.269531 0.6875 -2.375 L 1.234375 -2.375 C 1.265625 -2.320312 1.316406 -2.25 1.390625 -2.15625 C 1.472656 -2.070312 1.550781 -1.992188 1.625 -1.921875 L 1.625 -1.890625 Z M 1.3125 -1.890625 "/></g></g></g><g fill="#000000" fill-opacity="1"><g transform="translate(6.398633, 4.094522)"><g><path d="M 1.765625 0 L 1.296875 0 L 1.296875 -0.984375 C 1.296875 -1.109375 1.273438 -1.203125 1.234375 -1.265625 C 1.191406 -1.328125 1.128906 -1.359375 1.046875 -1.359375 C 0.921875 -1.359375 0.832031 -1.3125 0.78125 -1.21875 C 0.726562 -1.132812 0.703125 -0.992188 0.703125 -0.796875 L 0.703125 0 L 0.25 0 L 0.25 -1.703125 L 0.59375 -1.703125 L 0.65625 -1.484375 L 0.6875 -1.484375 C 0.726562 -1.554688 0.789062 -1.613281 0.875 -1.65625 C 0.96875 -1.707031 1.066406 -1.734375 1.171875 -1.734375 C 1.429688 -1.734375 1.601562 -1.648438 1.6875 -1.484375 L 1.734375 -1.484375 C 1.773438 -1.554688 1.835938 -1.613281 1.921875 -1.65625 C 2.015625 -1.707031 2.117188 -1.734375 2.234375 -1.734375 C 2.429688 -1.734375 2.578125 -1.679688 2.671875 -1.578125 C 2.773438 -1.484375 2.828125 -1.328125 2.828125 -1.109375 L 2.828125 0 L 2.359375 0 L 2.359375 -0.984375 C 2.359375 -1.109375 2.335938 -1.203125 2.296875 -1.265625 C 2.253906 -1.328125 2.1875 -1.359375 2.09375 -1.359375 C 1.988281 -1.359375 1.90625 -1.316406 1.84375 -1.234375 C 1.789062 -1.148438 1.765625 -1.023438 1.765625 -0.859375 Z M 1.765625 0 "/></g></g></g><g fill="#000000" fill-opacity="1"><g transform="translate(9.448769, 4.094522)"><g/></g></g><g fill="#000000" fill-opacity="1"><g transform="translate(10.255667, 4.094522)"><g><path d="M 0.953125 -0.34375 C 1.035156 -0.34375 1.132812 -0.359375 1.25 -0.390625 L 1.25 -0.046875 C 1.132812 0.00390625 0.992188 0.03125 0.828125 0.03125 C 0.640625 0.03125 0.503906 -0.015625 0.421875 -0.109375 C 0.335938 -0.203125 0.296875 -0.34375 0.296875 -0.53125 L 0.296875 -1.34375 L 0.078125 -1.34375 L 0.078125 -1.546875 L 0.328125 -1.703125 L 0.453125 -2.0625 L 0.75 -2.0625 L 0.75 -1.703125 L 1.234375 -1.703125 L 1.234375 -1.34375 L 0.75 -1.34375 L 0.75 -0.53125 C 0.75 -0.46875 0.765625 -0.421875 0.796875 -0.390625 C 0.835938 -0.359375 0.890625 -0.34375 0.953125 -0.34375 Z M 0.953125 -0.34375 "/></g></g></g><g fill="#000000" fill-opacity="1"><g transform="translate(11.604037, 4.094522)"><g><path d="M 0.21875 -2.140625 C 0.21875 -2.285156 0.300781 -2.359375 0.46875 -2.359375 C 0.644531 -2.359375 0.734375 -2.285156 0.734375 -2.140625 C 0.734375 -2.066406 0.707031 -2.007812 0.65625 -1.96875 C 0.613281 -1.925781 0.550781 -1.90625 0.46875 -1.90625 C 0.300781 -1.90625 0.21875 -1.984375 0.21875 -2.140625 Z M 0.703125 0 L 0.25 0 L 0.25 -1.703125 L 0.703125 -1.703125 Z M 0.703125 0 "/></g></g></g><g fill="#000000" fill-opacity="1"><g transform="translate(12.551991, 4.094522)"><g><path d="M 0.953125 -1.40625 C 0.847656 -1.40625 0.765625 -1.375 0.703125 -1.3125 C 0.648438 -1.25 0.625 -1.160156 0.625 -1.046875 L 1.265625 -1.046875 C 1.265625 -1.160156 1.234375 -1.25 1.171875 -1.3125 C 1.117188 -1.375 1.046875 -1.40625 0.953125 -1.40625 Z M 1.015625 0.03125 C 0.734375 0.03125 0.515625 -0.0390625 0.359375 -0.1875 C 0.210938 -0.34375 0.140625 -0.5625 0.140625 -0.84375 C 0.140625 -1.125 0.207031 -1.34375 0.34375 -1.5 C 0.488281 -1.65625 0.6875 -1.734375 0.9375 -1.734375 C 1.175781 -1.734375 1.363281 -1.660156 1.5 -1.515625 C 1.632812 -1.378906 1.703125 -1.191406 1.703125 -0.953125 L 1.703125 -0.734375 L 0.609375 -0.734375 C 0.609375 -0.597656 0.644531 -0.492188 0.71875 -0.421875 C 0.789062 -0.347656 0.894531 -0.3125 1.03125 -0.3125 C 1.132812 -0.3125 1.226562 -0.320312 1.3125 -0.34375 C 1.40625 -0.363281 1.503906 -0.398438 1.609375 -0.453125 L 1.609375 -0.09375 C 1.523438 -0.0507812 1.4375 -0.0195312 1.34375 0 C 1.25 0.0195312 1.140625 0.03125 1.015625 0.03125 Z M 1.3125 -1.890625 C 1.15625 -1.984375 1.035156 -2.070312 0.953125 -2.15625 C 0.867188 -2.070312 0.753906 -1.984375 0.609375 -1.890625 L 0.296875 -1.890625 L 0.296875 -1.921875 C 0.484375 -2.117188 0.613281 -2.269531 0.6875 -2.375 L 1.234375 -2.375 C 1.265625 -2.320312 1.316406 -2.25 1.390625 -2.15625 C 1.472656 -2.070312 1.550781 -1.992188 1.625 -1.921875 L 1.625 -1.890625 Z M 1.3125 -1.890625 "/></g></g></g><g fill="#000000" fill-opacity="1"><g transform="translate(14.38723, 4.094522)"><g><path d="M 1.453125 0 L 1.390625 -0.21875 L 1.359375 -0.21875 C 1.304688 -0.132812 1.234375 -0.0703125 1.140625 -0.03125 C 1.054688 0.0078125 0.957031 0.03125 0.84375 0.03125 C 0.632812 0.03125 0.476562 -0.0195312 0.375 -0.125 C 0.28125 -0.238281 0.234375 -0.394531 0.234375 -0.59375 L 0.234375 -1.703125 L 0.703125 -1.703125 L 0.703125 -0.703125 C 0.703125 -0.578125 0.722656 -0.484375 0.765625 -0.421875 C 0.804688 -0.367188 0.875 -0.34375 0.96875 -0.34375 C 1.101562 -0.34375 1.195312 -0.382812 1.25 -0.46875 C 1.3125 -0.550781 1.34375 -0.695312 1.34375 -0.90625 L 1.34375 -1.703125 L 1.796875 -1.703125 L 1.796875 0 Z M 1.453125 0 "/></g></g></g><g fill="#000000" fill-opacity="1"><g transform="translate(16.428743, 4.094522)"><g/></g></g><g fill="#000000" fill-opacity="1"><g transform="translate(17.235641, 4.094522)"><g><path d="M 0.78125 0.03125 C 0.582031 0.03125 0.425781 -0.0390625 0.3125 -0.1875 C 0.195312 -0.332031 0.140625 -0.535156 0.140625 -0.796875 C 0.140625 -1.066406 0.195312 -1.273438 0.3125 -1.421875 C 0.425781 -1.566406 0.585938 -1.640625 0.796875 -1.640625 C 1.015625 -1.640625 1.175781 -1.554688 1.28125 -1.390625 L 1.296875 -1.390625 C 1.273438 -1.515625 1.265625 -1.628906 1.265625 -1.734375 L 1.265625 -1.8125 L 0.78125 -1.8125 L 0.78125 -2.125 L 1.265625 -2.125 L 1.265625 -2.359375 L 1.71875 -2.359375 L 1.71875 -2.125 L 1.96875 -2.125 L 1.96875 -1.8125 L 1.71875 -1.8125 L 1.71875 0 L 1.375 0 L 1.28125 -0.21875 L 1.265625 -0.21875 C 1.160156 -0.0507812 1 0.03125 0.78125 0.03125 Z M 0.9375 -0.34375 C 1.0625 -0.34375 1.148438 -0.375 1.203125 -0.4375 C 1.253906 -0.5 1.285156 -0.601562 1.296875 -0.75 L 1.296875 -0.796875 C 1.296875 -0.960938 1.265625 -1.082031 1.203125 -1.15625 C 1.148438 -1.226562 1.0625 -1.265625 0.9375 -1.265625 C 0.832031 -1.265625 0.75 -1.222656 0.6875 -1.140625 C 0.632812 -1.054688 0.609375 -0.941406 0.609375 -0.796875 C 0.609375 -0.640625 0.632812 -0.523438 0.6875 -0.453125 C 0.75 -0.378906 0.832031 -0.34375 0.9375 -0.34375 Z M 0.9375 -0.34375 "/></g></g></g><g fill="#000000" fill-opacity="1"><g transform="translate(19.25137, 4.094522)"><g><path d="M 0.953125 -1.40625 C 0.847656 -1.40625 0.765625 -1.375 0.703125 -1.3125 C 0.648438 -1.25 0.625 -1.160156 0.625 -1.046875 L 1.265625 -1.046875 C 1.265625 -1.160156 1.234375 -1.25 1.171875 -1.3125 C 1.117188 -1.375 1.046875 -1.40625 0.953125 -1.40625 Z M 1.015625 0.03125 C 0.734375 0.03125 0.515625 -0.0390625 0.359375 -0.1875 C 0.210938 -0.34375 0.140625 -0.5625 0.140625 -0.84375 C 0.140625 -1.125 0.207031 -1.34375 0.34375 -1.5 C 0.488281 -1.65625 0.6875 -1.734375 0.9375 -1.734375 C 1.175781 -1.734375 1.363281 -1.660156 1.5 -1.515625 C 1.632812 -1.378906 1.703125 -1.191406 1.703125 -0.953125 L 1.703125 -0.734375 L 0.609375 -0.734375 C 0.609375 -0.597656 0.644531 -0.492188 0.71875 -0.421875 C 0.789062 -0.347656 0.894531 -0.3125 1.03125 -0.3125 C 1.132812 -0.3125 1.226562 -0.320312 1.3125 -0.34375 C 1.40625 -0.363281 1.503906 -0.398438 1.609375 -0.453125 L 1.609375 -0.09375 C 1.523438 -0.0507812 1.4375 -0.0195312 1.34375 0 C 1.25 0.0195312 1.140625 0.03125 1.015625 0.03125 Z M 0.390625 -1.921875 C 0.503906 -2.054688 0.613281 -2.195312 0.71875 -2.34375 L 1.203125 -2.34375 C 1.242188 -2.269531 1.296875 -2.191406 1.359375 -2.109375 C 1.429688 -2.023438 1.488281 -1.960938 1.53125 -1.921875 L 1.53125 -1.890625 L 1.28125 -1.890625 C 1.175781 -1.953125 1.066406 -2.035156 0.953125 -2.140625 C 0.847656 -2.035156 0.742188 -1.953125 0.640625 -1.890625 L 0.390625 -1.890625 Z M 0.53125 -2.1875 L 0.296875 -2.1875 C 0.128906 -2.300781 0.015625 -2.40625 -0.046875 -2.5 L -0.046875 -2.53125 L 0.3125 -2.53125 C 0.375 -2.414062 0.445312 -2.3125 0.53125 -2.21875 Z M 0.53125 -2.1875 "/></g></g></g><g fill="#000000" fill-opacity="1"><g transform="translate(21.086609, 4.094522)"><g/></g></g><g fill="#000000" fill-opacity="1"><g transform="translate(21.893507, 4.094522)"><g><path d="M 1.171875 0.03125 C 0.972656 0.03125 0.816406 -0.0390625 0.703125 -0.1875 L 0.6875 -0.1875 C 0.695312 -0.0390625 0.703125 0.0390625 0.703125 0.0625 L 0.703125 0.75 L 0.25 0.75 L 0.25 -1.703125 L 0.625 -1.703125 L 0.6875 -1.484375 L 0.703125 -1.484375 C 0.816406 -1.648438 0.976562 -1.734375 1.1875 -1.734375 C 1.382812 -1.734375 1.539062 -1.65625 1.65625 -1.5 C 1.769531 -1.34375 1.828125 -1.128906 1.828125 -0.859375 C 1.828125 -0.671875 1.800781 -0.507812 1.75 -0.375 C 1.695312 -0.238281 1.617188 -0.132812 1.515625 -0.0625 C 1.421875 0 1.304688 0.03125 1.171875 0.03125 Z M 1.03125 -1.359375 C 0.914062 -1.359375 0.832031 -1.320312 0.78125 -1.25 C 0.726562 -1.175781 0.703125 -1.0625 0.703125 -0.90625 L 0.703125 -0.859375 C 0.703125 -0.671875 0.726562 -0.535156 0.78125 -0.453125 C 0.84375 -0.378906 0.929688 -0.34375 1.046875 -0.34375 C 1.253906 -0.34375 1.359375 -0.515625 1.359375 -0.859375 C 1.359375 -1.023438 1.332031 -1.148438 1.28125 -1.234375 C 1.226562 -1.316406 1.144531 -1.359375 1.03125 -1.359375 Z M 1.03125 -1.359375 "/></g></g></g><g fill="#000000" fill-opacity="1"><g transform="translate(23.859184, 4.094522)"><g><path d="M 1.8125 0 L 1.34375 0 L 1.34375 -0.984375 C 1.34375 -1.234375 1.253906 -1.359375 1.078125 -1.359375 C 0.941406 -1.359375 0.84375 -1.3125 0.78125 -1.21875 C 0.726562 -1.132812 0.703125 -0.992188 0.703125 -0.796875 L 0.703125 0 L 0.25 0 L 0.25 -2.359375 L 0.703125 -2.359375 L 0.703125 -1.875 C 0.703125 -1.84375 0.703125 -1.753906 0.703125 -1.609375 L 0.6875 -1.484375 L 0.703125 -1.484375 C 0.804688 -1.648438 0.972656 -1.734375 1.203125 -1.734375 C 1.398438 -1.734375 1.550781 -1.675781 1.65625 -1.5625 C 1.757812 -1.457031 1.8125 -1.304688 1.8125 -1.109375 Z M 1.8125 0 "/></g></g></g><g fill="#000000" fill-opacity="1"><g transform="translate(25.900698, 4.094522)"><g><path d="M 1.453125 0 L 1.390625 -0.21875 L 1.359375 -0.21875 C 1.304688 -0.132812 1.234375 -0.0703125 1.140625 -0.03125 C 1.054688 0.0078125 0.957031 0.03125 0.84375 0.03125 C 0.632812 0.03125 0.476562 -0.0195312 0.375 -0.125 C 0.28125 -0.238281 0.234375 -0.394531 0.234375 -0.59375 L 0.234375 -1.703125 L 0.703125 -1.703125 L 0.703125 -0.703125 C 0.703125 -0.578125 0.722656 -0.484375 0.765625 -0.421875 C 0.804688 -0.367188 0.875 -0.34375 0.96875 -0.34375 C 1.101562 -0.34375 1.195312 -0.382812 1.25 -0.46875 C 1.3125 -0.550781 1.34375 -0.695312 1.34375 -0.90625 L 1.34375 -1.703125 L 1.796875 -1.703125 L 1.796875 0 Z M 0.765625 0.421875 C 0.765625 0.273438 0.847656 0.203125 1.015625 0.203125 C 1.179688 0.203125 1.265625 0.273438 1.265625 0.421875 C 1.265625 0.492188 1.242188 0.550781 1.203125 0.59375 C 1.160156 0.632812 1.097656 0.65625 1.015625 0.65625 C 0.847656 0.65625 0.765625 0.578125 0.765625 0.421875 Z M 0.765625 0.421875 "/></g></g></g></g></g></svg>