<svg xmlns="http://www.w3.org/2000/svg" xmlns:xlink="http://www.w3.org/1999/xlink" width="2000" zoomAndPan="magnify" viewBox="0 0 1500 1499.999933" height="2000" preserveAspectRatio="xMidYMid meet" version="1.0"><defs><g/><clipPath id="33514abd47"><path d="M 370.242188 569 L 428 569 L 428 601 L 370.242188 601 Z M 370.242188 569 " clip-rule="nonzero"/></clipPath><clipPath id="8f10d78cb1"><path d="M 1073 553 L 1129.992188 553 L 1129.992188 584 L 1073 584 Z M 1073 553 " clip-rule="nonzero"/></clipPath><clipPath id="9bf15550d0"><path d="M 812 291.710938 L 834 291.710938 L 834 331 L 812 331 Z M 812 291.710938 " clip-rule="nonzero"/></clipPath><clipPath id="f6575bf0e7"><path d="M 370.242188 530 L 411 530 L 411 553 L 370.242188 553 Z M 370.242188 530 " clip-rule="nonzero"/></clipPath><clipPath id="e6893d8df2"><path d="M 388 674 L 1118 674 L 1118 1010.210938 L 388 1010.210938 Z M 388 674 " clip-rule="nonzero"/></clipPath></defs><path fill="#39b54a" d="M 835.679688 534.078125 C 645.316406 662.089844 786.570312 817.429688 719.742188 891.304688 C 806.820312 826.535156 746.574219 730.90625 904.535156 667.65625 C 843.78125 670.695312 797.707031 731.917969 777.457031 706.113281 C 757.207031 680.8125 773.914062 580.121094 835.679688 534.078125 Z M 835.679688 534.078125 " fill-opacity="1" fill-rule="nonzero"/><path fill="#8cc63f" d="M 722.273438 858.921875 C 753.15625 833.621094 694.425781 680.8125 747.078125 603.902344 C 695.945312 640.335938 720.753906 716.230469 704.046875 719.269531 C 687.339844 722.304688 662.023438 685.875 631.648438 689.414062 C 683.289062 712.691406 725.308594 785.550781 722.273438 858.921875 Z M 722.273438 858.921875 " fill-opacity="1" fill-rule="nonzero"/><path fill="#8cc63f" d="M 704.046875 534.078125 C 704.046875 551.28125 713.160156 566.964844 727.839844 579.109375 C 742.523438 566.964844 751.636719 551.28125 751.636719 534.078125 C 751.636719 516.875 742.523438 501.1875 727.839844 489.042969 C 712.652344 500.683594 704.046875 516.367188 704.046875 534.078125 Z M 704.046875 534.078125 " fill-opacity="1" fill-rule="nonzero"/><path fill="#39b54a" d="M 699.996094 354.957031 C 699.996094 372.160156 709.109375 387.847656 723.792969 399.992188 C 738.472656 387.847656 747.585938 372.160156 747.585938 354.957031 C 747.585938 337.753906 738.472656 322.070312 723.792969 309.925781 C 709.109375 322.070312 699.996094 337.753906 699.996094 354.957031 Z M 699.996094 354.957031 " fill-opacity="1" fill-rule="nonzero"/><path fill="#006837" d="M 777.457031 464.757812 C 773.40625 481.453125 778.46875 499.164062 789.609375 514.34375 C 806.820312 506.25 818.972656 492.585938 823.527344 475.890625 C 827.578125 459.191406 822.515625 441.480469 811.378906 426.300781 C 793.65625 434.902344 781.507812 448.058594 777.457031 464.757812 Z M 777.457031 464.757812 " fill-opacity="1" fill-rule="nonzero"/><path fill="#006837" d="M 621.523438 470.828125 C 621.523438 488.03125 630.636719 503.71875 645.316406 515.863281 C 660 503.71875 669.113281 488.03125 669.113281 470.828125 C 669.113281 453.625 660 437.941406 645.316406 425.796875 C 630.636719 437.941406 621.523438 453.625 621.523438 470.828125 Z M 621.523438 470.828125 " fill-opacity="1" fill-rule="nonzero"/><path fill="#006837" d="M 965.289062 387.847656 C 952.125 398.980469 946.046875 416.183594 946.554688 435.410156 C 965.289062 438.445312 983.007812 434.902344 996.171875 423.773438 C 1009.335938 412.640625 1015.410156 395.4375 1014.902344 376.210938 C 996.171875 373.171875 978.449219 376.714844 965.289062 387.847656 Z M 965.289062 387.847656 " fill-opacity="1" fill-rule="nonzero"/><path fill="#39b54a" d="M 869.601562 397.96875 C 859.980469 412.640625 858.96875 430.351562 865.042969 448.566406 C 883.777344 446.542969 899.976562 437.941406 909.597656 423.265625 C 919.214844 408.59375 920.226562 390.882812 914.152344 372.667969 C 894.914062 374.691406 879.21875 383.292969 869.601562 397.96875 Z M 869.601562 397.96875 " fill-opacity="1" fill-rule="nonzero"/><path fill="#8cc63f" d="M 880.738281 481.453125 C 865.550781 489.550781 855.929688 505.234375 852.386719 523.957031 C 870.105469 531.042969 888.332031 531.546875 903.519531 522.945312 C 918.710938 514.851562 928.328125 499.164062 931.871094 480.441406 C 914.152344 473.359375 895.925781 472.851562 880.738281 481.453125 Z M 880.738281 481.453125 " fill-opacity="1" fill-rule="nonzero"/><path fill="#8cc63f" d="M 468.117188 707.628906 C 452.929688 715.726562 443.3125 731.410156 439.765625 750.132812 C 457.488281 757.21875 475.714844 757.722656 490.902344 749.121094 C 506.089844 741.027344 515.710938 725.339844 519.253906 706.617188 C 501.535156 699.535156 483.308594 699.027344 468.117188 707.628906 Z M 468.117188 707.628906 " fill-opacity="1" fill-rule="nonzero"/><path fill="#8cc63f" d="M 967.820312 641.851562 C 950.605469 641.347656 934.40625 649.441406 921.746094 663.609375 C 933.390625 678.789062 948.582031 688.402344 966.300781 688.910156 C 983.511719 689.414062 999.714844 681.320312 1012.371094 667.152344 C 1000.726562 651.972656 985.03125 642.359375 967.820312 641.851562 Z M 967.820312 641.851562 " fill-opacity="1" fill-rule="nonzero"/><path fill="#39b54a" d="M 424.070312 613.515625 C 406.859375 613.011719 390.65625 621.105469 378 635.273438 C 389.644531 650.453125 404.832031 660.066406 422.554688 660.574219 C 439.765625 661.078125 455.96875 652.984375 468.625 638.816406 C 456.980469 623.636719 441.792969 614.023438 424.070312 613.515625 Z M 424.070312 613.515625 " fill-opacity="1" fill-rule="nonzero"/><path fill="#39b54a" d="M 1074.644531 594.289062 C 1057.429688 593.785156 1041.230469 601.878906 1028.574219 616.046875 C 1040.21875 631.226562 1055.40625 640.839844 1073.125 641.347656 C 1090.339844 641.851562 1106.539062 633.757812 1119.199219 619.589844 C 1107.554688 604.410156 1091.859375 594.796875 1074.644531 594.289062 Z M 1074.644531 594.289062 " fill-opacity="1" fill-rule="nonzero"/><path fill="#39b54a" d="M 583.042969 728.375 C 568.867188 737.988281 560.769531 754.6875 559.25 773.410156 C 577.476562 778.46875 595.703125 776.949219 609.878906 767.335938 C 624.054688 757.722656 632.152344 741.027344 633.671875 722.304688 C 614.941406 717.246094 597.21875 718.761719 583.042969 728.375 Z M 583.042969 728.375 " fill-opacity="1" fill-rule="nonzero"/><path fill="#006837" d="M 557.222656 684.355469 C 572.917969 691.4375 591.144531 689.921875 608.359375 681.824219 C 603.296875 663.609375 592.664062 648.429688 576.96875 641.347656 C 561.273438 634.261719 543.046875 635.78125 525.835938 643.875 C 530.898438 662.597656 541.53125 677.269531 557.222656 684.355469 Z M 557.222656 684.355469 " fill-opacity="1" fill-rule="nonzero"/><path fill="#8cc63f" d="M 463.5625 581.640625 C 479.257812 588.722656 497.484375 587.207031 514.695312 579.109375 C 509.632812 560.894531 499 545.714844 483.308594 538.632812 C 467.613281 531.546875 449.386719 533.066406 432.171875 541.160156 C 437.234375 559.375 447.867188 574.050781 463.5625 581.640625 Z M 463.5625 581.640625 " fill-opacity="1" fill-rule="nonzero"/><g clip-path="url(#33514abd47)"><path fill="#39b54a" d="M 396.734375 599.855469 C 407.363281 601.878906 418.503906 597.832031 427.617188 590.242188 C 421.539062 579.617188 412.933594 572.027344 401.796875 570.507812 C 391.164062 568.484375 380.027344 572.53125 370.914062 580.121094 C 376.988281 590.242188 385.59375 597.832031 396.734375 599.855469 Z M 396.734375 599.855469 " fill-opacity="1" fill-rule="nonzero"/></g><path fill="#006837" d="M 399.265625 519.910156 C 409.894531 522.945312 421.035156 520.921875 431.160156 514.34375 C 426.605469 503.210938 418.503906 494.609375 407.871094 491.574219 C 397.238281 488.539062 386.101562 490.5625 375.976562 497.140625 C 381.039062 508.273438 388.632812 516.367188 399.265625 519.910156 Z M 399.265625 519.910156 " fill-opacity="1" fill-rule="nonzero"/><path fill="#39b54a" d="M 483.8125 407.074219 C 488.875 416.6875 498.496094 423.265625 510.644531 425.289062 C 515.203125 414.160156 515.710938 402.519531 510.644531 392.90625 C 505.582031 383.292969 495.964844 376.714844 483.8125 374.691406 C 479.257812 385.824219 478.75 397.460938 483.8125 407.074219 Z M 483.8125 407.074219 " fill-opacity="1" fill-rule="nonzero"/><path fill="#006837" d="M 684.808594 446.035156 C 684.808594 457.167969 690.375 467.289062 699.488281 474.875 C 709.109375 467.289062 714.679688 457.167969 714.679688 446.035156 C 714.679688 434.902344 709.109375 424.785156 699.996094 417.195312 C 690.882812 425.289062 685.3125 434.902344 684.808594 446.035156 Z M 684.808594 446.035156 " fill-opacity="1" fill-rule="nonzero"/><path fill="#8cc63f" d="M 777.964844 381.269531 C 772.394531 390.882812 772.902344 402.519531 776.949219 413.652344 C 789.101562 411.628906 798.722656 405.558594 804.289062 395.941406 C 809.859375 386.328125 809.351562 374.691406 805.300781 363.558594 C 793.152344 365.582031 783.027344 371.65625 777.964844 381.269531 Z M 777.964844 381.269531 " fill-opacity="1" fill-rule="nonzero"/><path fill="#39b54a" d="M 664.050781 535.089844 C 664.050781 546.222656 669.617188 556.339844 678.730469 563.929688 C 688.351562 556.339844 693.921875 546.222656 693.921875 535.089844 C 693.921875 523.957031 688.351562 513.835938 679.238281 506.25 C 670.125 514.34375 664.050781 523.957031 664.050781 535.089844 Z M 664.050781 535.089844 " fill-opacity="1" fill-rule="nonzero"/><path fill="#39b54a" d="M 933.898438 536.101562 C 927.824219 545.210938 926.808594 556.847656 929.847656 568.484375 C 942 567.472656 952.125 562.414062 958.707031 553.304688 C 964.78125 544.195312 965.792969 532.558594 962.757812 520.921875 C 950.605469 522.441406 940.480469 526.992188 933.898438 536.101562 Z M 933.898438 536.101562 " fill-opacity="1" fill-rule="nonzero"/><path fill="#8cc63f" d="M 886.308594 595.300781 C 878.714844 603.398438 875.675781 614.527344 877.195312 626.671875 C 889.34375 627.683594 900.484375 624.648438 908.078125 616.554688 C 915.671875 608.457031 918.710938 597.324219 917.191406 585.183594 C 905.039062 584.167969 893.902344 587.710938 886.308594 595.300781 Z M 886.308594 595.300781 " fill-opacity="1" fill-rule="nonzero"/><path fill="#006837" d="M 838.71875 613.011719 C 833.652344 618.070312 831.628906 625.660156 832.640625 633.757812 C 840.742188 634.261719 848.335938 632.238281 853.398438 627.179688 C 858.460938 622.117188 860.488281 614.527344 859.476562 606.433594 C 851.375 605.421875 843.78125 607.445312 838.71875 613.011719 Z M 838.71875 613.011719 " fill-opacity="1" fill-rule="nonzero"/><path fill="#8cc63f" d="M 1036.167969 413.652344 C 1027.054688 419.21875 1021.484375 429.84375 1019.460938 441.480469 C 1031.105469 445.53125 1042.75 445.023438 1051.863281 438.953125 C 1060.976562 433.386719 1066.542969 422.761719 1068.570312 411.121094 C 1057.429688 407.582031 1045.785156 408.085938 1036.167969 413.652344 Z M 1036.167969 413.652344 " fill-opacity="1" fill-rule="nonzero"/><path fill="#006837" d="M 1086.289062 504.222656 C 1075.152344 505.742188 1066.542969 512.824219 1059.960938 523.453125 C 1069.074219 531.546875 1079.707031 535.59375 1090.84375 534.078125 C 1101.984375 532.558594 1110.589844 525.476562 1117.171875 514.851562 C 1108.058594 506.753906 1096.921875 502.707031 1086.289062 504.222656 Z M 1086.289062 504.222656 " fill-opacity="1" fill-rule="nonzero"/><g clip-path="url(#8f10d78cb1)"><path fill="#8cc63f" d="M 1104.007812 553.8125 C 1093.375 551.785156 1082.238281 555.835938 1073.125 563.425781 C 1079.199219 574.050781 1087.808594 581.640625 1098.945312 583.15625 C 1109.578125 585.183594 1120.714844 581.132812 1129.828125 573.542969 C 1123.753906 562.917969 1115.148438 555.835938 1104.007812 553.8125 Z M 1104.007812 553.8125 " fill-opacity="1" fill-rule="nonzero"/></g><path fill="#8cc63f" d="M 1012.371094 713.703125 C 1004.269531 706.617188 992.625 704.089844 980.476562 706.113281 C 979.96875 718.257812 984.019531 729.386719 992.625 736.472656 C 1000.726562 743.554688 1012.371094 746.085938 1024.523438 744.0625 C 1024.523438 731.917969 1020.472656 720.785156 1012.371094 713.703125 Z M 1012.371094 713.703125 " fill-opacity="1" fill-rule="nonzero"/><path fill="#006837" d="M 1051.355469 657.539062 C 1045.785156 652.476562 1037.6875 650.960938 1029.585938 652.476562 C 1029.585938 661.078125 1032.117188 668.667969 1037.6875 673.730469 C 1043.253906 678.789062 1051.355469 680.308594 1059.457031 678.789062 C 1059.960938 670.1875 1056.925781 662.597656 1051.355469 657.539062 Z M 1051.355469 657.539062 " fill-opacity="1" fill-rule="nonzero"/><path fill="#8cc63f" d="M 956.679688 608.457031 C 950.097656 612 945.542969 618.578125 943.515625 627.179688 C 951.113281 630.214844 959.210938 630.71875 966.300781 627.179688 C 972.882812 623.636719 977.4375 617.058594 979.464844 608.457031 C 971.363281 605.421875 963.769531 604.914062 956.679688 608.457031 Z M 956.679688 608.457031 " fill-opacity="1" fill-rule="nonzero"/><path fill="#8cc63f" d="M 1101.476562 465.769531 C 1094.894531 469.3125 1090.339844 475.890625 1088.3125 484.492188 C 1095.910156 487.527344 1104.007812 488.03125 1111.097656 484.492188 C 1117.679688 480.949219 1122.234375 474.371094 1124.261719 465.769531 C 1116.160156 462.734375 1108.058594 462.226562 1101.476562 465.769531 Z M 1101.476562 465.769531 " fill-opacity="1" fill-rule="nonzero"/><path fill="#006837" d="M 955.667969 461.722656 C 949.085938 465.769531 945.542969 473.359375 945.035156 481.453125 C 953.136719 483.984375 961.238281 482.972656 967.3125 478.925781 C 973.894531 474.875 977.4375 467.289062 977.945312 459.191406 C 969.84375 457.167969 962.25 457.671875 955.667969 461.722656 Z M 955.667969 461.722656 " fill-opacity="1" fill-rule="nonzero"/><path fill="#8cc63f" d="M 830.109375 415.675781 C 830.617188 423.265625 834.667969 430.351562 841.25 435.410156 C 847.324219 429.84375 851.375 422.761719 850.867188 415.171875 C 850.363281 407.582031 846.3125 400.496094 839.730469 395.4375 C 833.652344 400.496094 829.605469 407.582031 830.109375 415.675781 Z M 830.109375 415.675781 " fill-opacity="1" fill-rule="nonzero"/><g clip-path="url(#9bf15550d0)"><path fill="#39b54a" d="M 812.898438 308.40625 C 810.871094 315.996094 812.898438 323.585938 817.453125 330.671875 C 825.046875 327.128906 830.617188 321.5625 832.640625 313.972656 C 834.667969 306.382812 832.640625 298.792969 828.085938 291.710938 C 820.492188 295.25 814.921875 300.816406 812.898438 308.40625 Z M 812.898438 308.40625 " fill-opacity="1" fill-rule="nonzero"/></g><path fill="#8cc63f" d="M 914.660156 438.445312 C 910.609375 445.023438 910.101562 453.121094 912.632812 460.710938 C 921.242188 459.699219 928.328125 455.648438 932.378906 449.578125 C 936.429688 443 936.9375 434.902344 934.40625 427.3125 C 925.796875 428.328125 918.710938 432.375 914.660156 438.445312 Z M 914.660156 438.445312 " fill-opacity="1" fill-rule="nonzero"/><path fill="#006837" d="M 943.515625 341.800781 C 939.46875 348.378906 938.960938 356.476562 941.492188 364.066406 C 950.097656 363.054688 957.1875 359.007812 961.238281 352.933594 C 965.289062 346.355469 965.792969 338.261719 963.261719 330.671875 C 954.65625 331.175781 947.566406 335.226562 943.515625 341.800781 Z M 943.515625 341.800781 " fill-opacity="1" fill-rule="nonzero"/><path fill="#8cc63f" d="M 1045.28125 377.222656 C 1039.203125 381.777344 1035.660156 388.859375 1035.15625 397.460938 C 1043.253906 399.484375 1051.355469 398.472656 1057.429688 393.917969 C 1063.507812 389.367188 1067.050781 382.28125 1067.554688 373.679688 C 1059.457031 371.65625 1051.355469 372.667969 1045.28125 377.222656 Z M 1045.28125 377.222656 " fill-opacity="1" fill-rule="nonzero"/><path fill="#006837" d="M 1080.214844 429.84375 C 1074.136719 434.398438 1070.59375 441.480469 1070.089844 450.082031 C 1078.1875 452.109375 1086.289062 451.09375 1092.363281 446.542969 C 1098.441406 441.988281 1101.984375 434.902344 1102.488281 426.300781 C 1094.390625 424.277344 1086.289062 425.289062 1080.214844 429.84375 Z M 1080.214844 429.84375 " fill-opacity="1" fill-rule="nonzero"/><path fill="#8cc63f" d="M 841.25 474.371094 C 837.199219 480.949219 836.691406 488.539062 839.222656 496.632812 C 847.832031 495.621094 854.917969 492.082031 858.96875 485.503906 C 863.019531 478.925781 863.523438 471.335938 860.992188 463.238281 C 852.386719 464.25 845.296875 467.792969 841.25 474.371094 Z M 841.25 474.371094 " fill-opacity="1" fill-rule="nonzero"/><path fill="#8cc63f" d="M 874.15625 326.625 C 871.117188 333.707031 872.636719 341.800781 876.6875 348.886719 C 884.789062 346.355469 890.863281 341.296875 893.902344 334.210938 C 896.941406 327.128906 895.421875 319.035156 891.371094 311.949219 C 882.761719 314.480469 876.6875 319.539062 874.15625 326.625 Z M 874.15625 326.625 " fill-opacity="1" fill-rule="nonzero"/><path fill="#39b54a" d="M 699.488281 615.035156 C 695.4375 621.613281 694.933594 629.203125 697.464844 637.296875 C 706.070312 636.285156 713.160156 632.746094 717.210938 626.167969 C 721.257812 619.589844 721.765625 612 719.234375 603.902344 C 710.628906 604.914062 703.539062 608.457031 699.488281 615.035156 Z M 699.488281 615.035156 " fill-opacity="1" fill-rule="nonzero"/><path fill="#006837" d="M 732.398438 455.144531 C 732.902344 462.734375 737.460938 469.3125 744.042969 474.371094 C 750.117188 468.300781 753.660156 461.214844 753.15625 453.625 C 752.648438 446.035156 748.09375 439.457031 741.511719 434.398438 C 734.929688 439.964844 731.890625 447.046875 732.398438 455.144531 Z M 732.398438 455.144531 " fill-opacity="1" fill-rule="nonzero"/><path fill="#006837" d="M 768.851562 324.09375 C 766.824219 331.175781 768.34375 339.273438 772.902344 346.355469 C 780.496094 343.320312 786.570312 337.753906 788.59375 330.164062 C 790.621094 323.082031 789.101562 314.984375 784.542969 307.902344 C 776.949219 311.445312 771.382812 317.007812 768.851562 324.09375 Z M 768.851562 324.09375 " fill-opacity="1" fill-rule="nonzero"/><path fill="#39b54a" d="M 830.109375 356.980469 C 828.589844 364.570312 830.617188 372.160156 836.1875 378.738281 C 843.78125 374.691406 848.84375 369.125 850.867188 361.535156 C 852.386719 353.945312 850.363281 346.355469 844.792969 339.777344 C 837.199219 343.320312 832.136719 349.390625 830.109375 356.980469 Z M 830.109375 356.980469 " fill-opacity="1" fill-rule="nonzero"/><path fill="#39b54a" d="M 669.113281 328.140625 C 669.617188 335.730469 674.175781 342.308594 680.757812 347.367188 C 686.832031 341.296875 690.375 334.210938 689.871094 326.625 C 689.363281 319.035156 684.808594 312.457031 678.226562 307.394531 C 671.644531 312.960938 668.605469 320.550781 669.113281 328.140625 Z M 669.113281 328.140625 " fill-opacity="1" fill-rule="nonzero"/><path fill="#8cc63f" d="M 843.273438 561.402344 C 839.730469 567.976562 839.730469 576.074219 843.273438 584.167969 C 851.375 582.652344 858.460938 578.097656 862.007812 571.519531 C 865.550781 564.941406 865.550781 556.847656 862.007812 548.75 C 853.398438 550.269531 846.816406 554.824219 843.273438 561.402344 Z M 843.273438 561.402344 " fill-opacity="1" fill-rule="nonzero"/><path fill="#8cc63f" d="M 799.226562 605.421875 C 797.707031 613.011719 800.746094 620.601562 805.808594 627.179688 C 813.402344 623.128906 818.464844 617.058594 819.476562 609.46875 C 820.996094 601.878906 817.960938 594.289062 812.898438 587.710938 C 805.808594 591.757812 800.746094 597.832031 799.226562 605.421875 Z M 799.226562 605.421875 " fill-opacity="1" fill-rule="nonzero"/><path fill="#8cc63f" d="M 759.738281 551.785156 C 758.722656 559.375 761.761719 566.964844 767.835938 573.039062 C 774.925781 568.484375 779.480469 561.90625 780.496094 554.316406 C 781.507812 546.726562 778.46875 539.136719 772.394531 533.066406 C 765.304688 538.125 760.75 544.195312 759.738281 551.785156 Z M 759.738281 551.785156 " fill-opacity="1" fill-rule="nonzero"/><path fill="#39b54a" d="M 618.484375 557.351562 C 618.992188 564.941406 623.546875 571.519531 630.636719 576.582031 C 636.710938 570.507812 640.253906 563.425781 639.75 555.835938 C 639.242188 548.246094 634.683594 541.667969 627.597656 536.605469 C 621.523438 542.171875 617.976562 549.761719 618.484375 557.351562 Z M 618.484375 557.351562 " fill-opacity="1" fill-rule="nonzero"/><path fill="#8cc63f" d="M 666.582031 597.832031 C 667.085938 605.421875 671.644531 612 678.730469 617.058594 C 684.808594 610.988281 688.351562 603.902344 687.84375 596.3125 C 687.339844 588.722656 682.78125 582.144531 675.695312 577.085938 C 669.113281 583.15625 666.074219 590.242188 666.582031 597.832031 Z M 666.582031 597.832031 " fill-opacity="1" fill-rule="nonzero"/><path fill="#8cc63f" d="M 612.410156 365.582031 C 613.929688 373.171875 618.992188 379.246094 626.078125 383.292969 C 631.648438 376.714844 634.179688 369.125 632.660156 361.535156 C 631.140625 353.945312 626.078125 347.875 618.992188 343.828125 C 613.929688 350.40625 611.398438 357.996094 612.410156 365.582031 Z M 612.410156 365.582031 " fill-opacity="1" fill-rule="nonzero"/><path fill="#8cc63f" d="M 503.558594 537.113281 C 510.140625 540.65625 518.242188 540.65625 526.339844 537.621094 C 524.824219 529.523438 520.773438 522.441406 513.683594 518.898438 C 507.101562 515.355469 499 515.355469 490.902344 518.390625 C 492.925781 526.488281 496.976562 533.066406 503.558594 537.113281 Z M 503.558594 537.113281 " fill-opacity="1" fill-rule="nonzero"/><path fill="#006837" d="M 509.632812 468.300781 C 514.191406 474.371094 521.785156 477.40625 529.886719 477.914062 C 531.910156 469.816406 530.898438 461.722656 526.339844 455.648438 C 521.785156 449.578125 514.191406 446.542969 506.089844 446.035156 C 504.066406 454.132812 505.078125 462.226562 509.632812 468.300781 Z M 509.632812 468.300781 " fill-opacity="1" fill-rule="nonzero"/><path fill="#006837" d="M 617.472656 599.347656 C 622.027344 605.421875 629.621094 608.457031 637.722656 608.964844 C 639.75 600.867188 638.734375 592.773438 634.179688 586.699219 C 629.621094 580.628906 622.027344 577.59375 613.929688 577.085938 C 611.902344 585.6875 612.914062 593.277344 617.472656 599.347656 Z M 617.472656 599.347656 " fill-opacity="1" fill-rule="nonzero"/><path fill="#8cc63f" d="M 521.277344 367.609375 C 524.316406 374.691406 530.898438 379.246094 539 381.777344 C 542.542969 374.1875 543.554688 366.089844 540.515625 359.007812 C 537.480469 352.429688 530.898438 347.367188 522.796875 344.839844 C 519.253906 352.429688 518.242188 360.523438 521.277344 367.609375 Z M 521.277344 367.609375 " fill-opacity="1" fill-rule="nonzero"/><path fill="#006837" d="M 629.621094 318.019531 C 631.648438 325.609375 637.21875 331.175781 644.8125 334.71875 C 649.875 327.636719 651.898438 320.046875 649.875 312.457031 C 647.847656 304.867188 642.28125 299.300781 634.683594 295.757812 C 629.621094 302.839844 627.597656 310.9375 629.621094 318.019531 Z M 629.621094 318.019531 " fill-opacity="1" fill-rule="nonzero"/><path fill="#39b54a" d="M 569.375 340.789062 C 571.398438 348.378906 576.96875 353.945312 584.5625 357.488281 C 589.625 350.40625 591.652344 342.816406 589.625 335.226562 C 587.601562 327.636719 582.03125 322.070312 574.4375 318.527344 C 569.375 325.609375 567.351562 333.199219 569.375 340.789062 Z M 569.375 340.789062 " fill-opacity="1" fill-rule="nonzero"/><path fill="#8cc63f" d="M 647.34375 635.273438 C 650.886719 639.828125 656.457031 642.359375 663.039062 642.863281 C 664.554688 636.285156 663.542969 630.214844 660 625.660156 C 656.457031 621.105469 650.886719 618.578125 644.304688 618.070312 C 643.292969 624.144531 643.796875 630.214844 647.34375 635.273438 Z M 647.34375 635.273438 " fill-opacity="1" fill-rule="nonzero"/><path fill="#39b54a" d="M 445.84375 416.6875 C 450.398438 422.761719 457.992188 425.796875 466.09375 426.300781 C 468.117188 418.207031 467.105469 410.109375 462.550781 404.039062 C 457.992188 397.96875 450.398438 394.929688 442.296875 394.425781 C 440.273438 403.027344 441.285156 410.617188 445.84375 416.6875 Z M 445.84375 416.6875 " fill-opacity="1" fill-rule="nonzero"/><path fill="#8cc63f" d="M 507.101562 627.683594 C 514.191406 630.214844 522.289062 629.203125 529.378906 625.15625 C 526.847656 617.058594 521.785156 610.988281 514.695312 607.953125 C 507.609375 605.421875 499.507812 606.433594 492.421875 610.480469 C 494.953125 618.578125 500.015625 624.648438 507.101562 627.683594 Z M 507.101562 627.683594 " fill-opacity="1" fill-rule="nonzero"/><path fill="#39b54a" d="M 604.308594 646.40625 C 611.398438 648.9375 619.496094 647.925781 626.585938 643.875 C 624.054688 635.78125 618.992188 629.707031 611.902344 626.671875 C 604.816406 624.144531 596.714844 625.15625 589.625 629.203125 C 592.15625 637.804688 597.21875 643.875 604.308594 646.40625 Z M 604.308594 646.40625 " fill-opacity="1" fill-rule="nonzero"/><path fill="#39b54a" d="M 509.128906 682.835938 C 516.214844 680.308594 521.785156 674.234375 524.824219 666.644531 C 517.734375 662.089844 509.632812 660.574219 502.546875 663.105469 C 495.457031 665.632812 489.890625 671.707031 486.851562 679.296875 C 493.9375 683.847656 502.039062 685.367188 509.128906 682.835938 Z M 509.128906 682.835938 " fill-opacity="1" fill-rule="nonzero"/><path fill="#39b54a" d="M 601.777344 715.726562 C 608.863281 713.195312 614.433594 707.125 617.472656 699.535156 C 610.382812 694.980469 602.285156 693.460938 595.195312 695.992188 C 588.109375 698.523438 582.539062 704.59375 579.5 712.183594 C 586.589844 716.230469 594.6875 717.75 601.777344 715.726562 Z M 601.777344 715.726562 " fill-opacity="1" fill-rule="nonzero"/><path fill="#006837" d="M 635.191406 678.285156 C 640.253906 676.765625 643.796875 672.71875 645.824219 667.65625 C 641.265625 664.621094 635.699219 663.609375 631.140625 665.128906 C 626.078125 666.644531 622.535156 670.695312 620.507812 675.753906 C 625.066406 678.789062 630.128906 679.800781 635.191406 678.285156 Z M 635.191406 678.285156 " fill-opacity="1" fill-rule="nonzero"/><g clip-path="url(#f6575bf0e7)"><path fill="#006837" d="M 390.152344 552.292969 C 397.746094 552.796875 404.832031 549.257812 410.910156 542.679688 C 405.847656 536.101562 399.265625 531.546875 391.164062 531.042969 C 383.570312 530.535156 376.480469 534.078125 370.40625 540.65625 C 375.46875 547.234375 382.050781 551.785156 390.152344 552.292969 Z M 390.152344 552.292969 " fill-opacity="1" fill-rule="nonzero"/></g><path fill="#39b54a" d="M 458.5 609.976562 C 465.585938 612.503906 473.6875 611.492188 480.777344 607.445312 C 478.246094 599.347656 473.179688 593.277344 466.09375 590.242188 C 459.003906 587.710938 450.90625 588.722656 443.816406 592.773438 C 446.347656 600.867188 451.410156 607.445312 458.5 609.976562 Z M 458.5 609.976562 " fill-opacity="1" fill-rule="nonzero"/><path fill="#8cc63f" d="M 588.109375 490.054688 C 588.109375 497.644531 592.664062 504.730469 599.246094 509.789062 C 605.828125 504.222656 609.371094 497.140625 608.863281 489.550781 C 608.863281 481.960938 604.308594 474.875 597.726562 469.816406 C 591.652344 474.875 588.109375 482.464844 588.109375 490.054688 Z M 588.109375 490.054688 " fill-opacity="1" fill-rule="nonzero"/><path fill="#39b54a" d="M 598.738281 417.699219 C 598.738281 425.289062 603.296875 432.375 609.878906 437.433594 C 616.460938 431.867188 620.003906 424.785156 619.496094 417.195312 C 619.496094 409.605469 614.941406 402.519531 608.359375 397.460938 C 602.285156 403.027344 598.234375 410.109375 598.738281 417.699219 Z M 598.738281 417.699219 " fill-opacity="1" fill-rule="nonzero"/><path fill="#8cc63f" d="M 555.707031 609.46875 C 564.820312 615.539062 576.464844 616.554688 588.109375 613.515625 C 587.09375 601.375 582.03125 591.253906 572.917969 584.675781 C 563.804688 578.605469 552.160156 577.59375 540.515625 580.628906 C 541.53125 593.277344 546.59375 603.398438 555.707031 609.46875 Z M 555.707031 609.46875 " fill-opacity="1" fill-rule="nonzero"/><path fill="#8cc63f" d="M 652.910156 384.8125 C 655.949219 395.4375 664.050781 403.53125 675.1875 408.59375 C 682.277344 398.472656 684.808594 387.339844 681.769531 376.714844 C 678.730469 366.089844 670.632812 357.996094 659.492188 352.933594 C 652.910156 363.054688 650.378906 374.1875 652.910156 384.8125 Z M 652.910156 384.8125 " fill-opacity="1" fill-rule="nonzero"/><path fill="#8cc63f" d="M 460.019531 699.535156 C 470.144531 694.476562 476.21875 684.859375 479.257812 673.222656 C 468.117188 668.164062 456.472656 667.65625 446.855469 672.71875 C 436.730469 677.777344 430.652344 687.390625 427.617188 699.027344 C 438.753906 703.582031 450.398438 704.089844 460.019531 699.535156 Z M 460.019531 699.535156 " fill-opacity="1" fill-rule="nonzero"/><path fill="#006837" d="M 557.222656 735.460938 C 561.78125 725.339844 560.769531 713.703125 555.707031 703.078125 C 544.0625 706.113281 534.441406 712.691406 529.886719 722.808594 C 525.328125 732.929688 526.339844 744.566406 531.402344 755.191406 C 543.046875 752.15625 552.667969 745.074219 557.222656 735.460938 Z M 557.222656 735.460938 " fill-opacity="1" fill-rule="nonzero"/><path fill="#006837" d="M 1020.472656 582.652344 C 1036.671875 576.582031 1048.316406 562.414062 1054.394531 544.703125 C 1037.6875 535.089844 1019.964844 532.558594 1003.765625 538.632812 C 987.5625 544.703125 975.917969 558.871094 969.84375 576.582031 C 986.550781 586.195312 1004.777344 588.722656 1020.472656 582.652344 Z M 1020.472656 582.652344 " fill-opacity="1" fill-rule="nonzero"/><path fill="#39b54a" d="M 1033.636719 506.753906 C 1050.847656 503.71875 1064.519531 492.082031 1074.136719 475.382812 C 1059.457031 463.238281 1042.242188 457.167969 1025.535156 460.203125 C 1008.320312 463.238281 994.652344 474.875 985.03125 491.574219 C 999.207031 503.71875 1016.421875 509.789062 1033.636719 506.753906 Z M 1033.636719 506.753906 " fill-opacity="1" fill-rule="nonzero"/><path fill="#006837" d="M 907.066406 743.554688 C 920.734375 754.179688 938.453125 757.21875 957.1875 753.167969 C 956.679688 733.941406 950.097656 717.246094 936.429688 706.617188 C 922.761719 695.992188 905.039062 692.957031 886.308594 697.003906 C 886.8125 715.726562 893.394531 732.929688 907.066406 743.554688 Z M 907.066406 743.554688 " fill-opacity="1" fill-rule="nonzero"/><path fill="#006837" d="M 443.816406 482.464844 C 457.488281 493.09375 475.207031 496.128906 493.9375 492.082031 C 493.433594 472.851562 486.851562 456.15625 473.179688 445.53125 C 459.511719 434.902344 441.792969 431.867188 423.058594 435.914062 C 423.566406 454.636719 430.652344 471.839844 443.816406 482.464844 Z M 443.816406 482.464844 " fill-opacity="1" fill-rule="nonzero"/><path fill="#39b54a" d="M 546.59375 545.207031 C 554.691406 560.386719 570.386719 570.003906 588.613281 574.050781 C 595.703125 556.339844 596.207031 538.125 588.109375 522.945312 C 580.007812 507.765625 564.3125 498.152344 546.085938 494.105469 C 538.492188 511.8125 537.984375 530.03125 546.59375 545.207031 Z M 546.59375 545.207031 " fill-opacity="1" fill-rule="nonzero"/><path fill="#8cc63f" d="M 540.515625 428.832031 C 542.542969 446.035156 553.679688 460.710938 569.882812 470.828125 C 583.042969 456.660156 589.625 439.964844 587.601562 422.761719 C 585.574219 405.558594 574.4375 390.882812 558.238281 380.761719 C 545.074219 394.929688 538.492188 411.628906 540.515625 428.832031 Z M 540.515625 428.832031 " fill-opacity="1" fill-rule="nonzero"/><path fill="#8cc63f" d="M 701.007812 672.71875 C 701.007812 683.847656 691.894531 693.460938 680.25 693.460938 C 669.113281 693.460938 659.492188 684.355469 659.492188 672.71875 C 659.492188 661.585938 668.605469 651.972656 680.25 651.972656 C 691.894531 651.972656 701.007812 661.585938 701.007812 672.71875 Z M 701.007812 672.71875 " fill-opacity="1" fill-rule="nonzero"/><path fill="#39b54a" d="M 832.136719 667.65625 C 832.136719 682.332031 820.492188 693.96875 805.808594 693.96875 C 791.125 693.96875 779.480469 682.332031 779.480469 667.65625 C 779.480469 652.984375 791.125 641.347656 805.808594 641.347656 C 820.492188 641.347656 832.136719 652.984375 832.136719 667.65625 Z M 832.136719 667.65625 " fill-opacity="1" fill-rule="nonzero"/><g clip-path="url(#e6893d8df2)"><path fill="#006837" d="M 795.175781 970.742188 C 770.875 931.277344 768.851562 863.472656 774.417969 835.644531 C 738.472656 897.882812 729.359375 871.0625 685.820312 967.203125 C 534.949219 939.878906 415.972656 823.5 388.125 674.742188 C 403.316406 862.460938 560.769531 1010.210938 752.648438 1010.210938 C 944.53125 1010.210938 1101.984375 862.460938 1117.171875 674.742188 C 1088.3125 831.597656 957.691406 952.527344 795.175781 970.742188 Z M 795.175781 970.742188 " fill-opacity="1" fill-rule="nonzero"/></g><g fill="#006837" fill-opacity="1"><g transform="translate(335.961553, 1146.058705)"><g><path d="M 58.484375 -79.109375 L 58.484375 -63.671875 L 26.25 -63.671875 L 26.25 -46.984375 L 50.375 -46.984375 L 50.375 -32 L 26.25 -32 L 26.25 0 L 6.984375 0 L 6.984375 -79.109375 Z M 58.484375 -79.109375 "/></g></g></g><g fill="#006837" fill-opacity="1"><g transform="translate(406.60969, 1146.058705)"><g><path d="M 56.234375 -13.96875 L 26.703125 -13.96875 L 21.96875 0 L 1.796875 0 L 30.421875 -79.109375 L 52.734375 -79.109375 L 81.359375 0 L 60.96875 0 Z M 51.265625 -28.84375 L 41.46875 -57.8125 L 31.78125 -28.84375 Z M 51.265625 -28.84375 "/></g></g></g><g fill="#006837" fill-opacity="1"><g transform="translate(498.666231, 1146.058705)"><g><path d="M 96.578125 -79.109375 L 96.578125 0 L 77.296875 0 L 77.296875 -47.4375 L 59.609375 0 L 44.0625 0 L 26.25 -47.546875 L 26.25 0 L 6.984375 0 L 6.984375 -79.109375 L 29.75 -79.109375 L 51.953125 -24.34375 L 73.921875 -79.109375 Z M 96.578125 -79.109375 "/></g></g></g><g fill="#006837" fill-opacity="1"><g transform="translate(611.117092, 1146.058705)"><g><path d="M 26.25 -79.109375 L 26.25 0 L 6.984375 0 L 6.984375 -79.109375 Z M 26.25 -79.109375 "/></g></g></g><g fill="#006837" fill-opacity="1"><g transform="translate(653.370918, 1146.058705)"><g><path d="M 26.25 -14.875 L 51.5 -14.875 L 51.5 0 L 6.984375 0 L 6.984375 -79.109375 L 26.25 -79.109375 Z M 26.25 -14.875 "/></g></g></g><g fill="#006837" fill-opacity="1"><g transform="translate(716.131754, 1146.058705)"><g><path d="M 74.828125 -79.109375 L 47.4375 -26.140625 L 47.4375 0 L 28.171875 0 L 28.171875 -26.140625 L 0.78125 -79.109375 L 22.65625 -79.109375 L 37.96875 -45.96875 L 53.1875 -79.109375 Z M 74.828125 -79.109375 "/></g></g></g><g fill="#006837" fill-opacity="1"><g transform="translate(800.751674, 1146.058705)"><g/></g></g><g fill="#006837" fill-opacity="1"><g transform="translate(833.653435, 1146.058705)"><g><path d="M 3.71875 -39.671875 C 3.71875 -47.484375 5.40625 -54.445312 8.78125 -60.5625 C 12.164062 -66.6875 16.878906 -71.457031 22.921875 -74.875 C 28.972656 -78.300781 35.832031 -80.015625 43.5 -80.015625 C 52.882812 -80.015625 60.921875 -77.535156 67.609375 -72.578125 C 74.296875 -67.617188 78.765625 -60.851562 81.015625 -52.28125 L 59.84375 -52.28125 C 58.257812 -55.59375 56.019531 -58.109375 53.125 -59.828125 C 50.238281 -61.554688 46.953125 -62.421875 43.265625 -62.421875 C 37.335938 -62.421875 32.53125 -60.351562 28.84375 -56.21875 C 25.164062 -52.09375 23.328125 -46.578125 23.328125 -39.671875 C 23.328125 -32.753906 25.164062 -27.226562 28.84375 -23.09375 C 32.53125 -18.96875 37.335938 -16.90625 43.265625 -16.90625 C 46.953125 -16.90625 50.238281 -17.769531 53.125 -19.5 C 56.019531 -21.226562 58.257812 -23.742188 59.84375 -27.046875 L 81.015625 -27.046875 C 78.765625 -18.484375 74.296875 -11.738281 67.609375 -6.8125 C 60.921875 -1.894531 52.882812 0.5625 43.5 0.5625 C 35.832031 0.5625 28.972656 -1.144531 22.921875 -4.5625 C 16.878906 -7.976562 12.164062 -12.726562 8.78125 -18.8125 C 5.40625 -24.90625 3.71875 -31.859375 3.71875 -39.671875 Z M 3.71875 -39.671875 "/></g></g></g><g fill="#006837" fill-opacity="1"><g transform="translate(928.526871, 1146.058705)"><g><path d="M 56.234375 -13.96875 L 26.703125 -13.96875 L 21.96875 0 L 1.796875 0 L 30.421875 -79.109375 L 52.734375 -79.109375 L 81.359375 0 L 60.96875 0 Z M 51.265625 -28.84375 L 41.46875 -57.8125 L 31.78125 -28.84375 Z M 51.265625 -28.84375 "/></g></g></g><g fill="#006837" fill-opacity="1"><g transform="translate(1020.583412, 1146.058705)"><g><path d="M 47.328125 0 L 30.875 -29.859375 L 26.25 -29.859375 L 26.25 0 L 6.984375 0 L 6.984375 -79.109375 L 39.328125 -79.109375 C 45.566406 -79.109375 50.878906 -78.019531 55.265625 -75.84375 C 59.660156 -73.664062 62.945312 -70.675781 65.125 -66.875 C 67.3125 -63.082031 68.40625 -58.859375 68.40625 -54.203125 C 68.40625 -48.941406 66.921875 -44.242188 63.953125 -40.109375 C 60.984375 -35.984375 56.609375 -33.054688 50.828125 -31.328125 L 69.078125 0 Z M 26.25 -43.5 L 38.203125 -43.5 C 41.734375 -43.5 44.378906 -44.363281 46.140625 -46.09375 C 47.910156 -47.820312 48.796875 -50.257812 48.796875 -53.40625 C 48.796875 -56.414062 47.910156 -58.785156 46.140625 -60.515625 C 44.378906 -62.242188 41.734375 -63.109375 38.203125 -63.109375 L 26.25 -63.109375 Z M 26.25 -43.5 "/></g></g></g><g fill="#006837" fill-opacity="1"><g transform="translate(1103.062485, 1146.058705)"><g><path d="M 26.25 -63.671875 L 26.25 -47.671875 L 52.0625 -47.671875 L 52.0625 -32.796875 L 26.25 -32.796875 L 26.25 -15.4375 L 55.4375 -15.4375 L 55.4375 0 L 6.984375 0 L 6.984375 -79.109375 L 55.4375 -79.109375 L 55.4375 -63.671875 Z M 26.25 -63.671875 "/></g></g></g></svg>